<?xml version="1.0" encoding="UTF-8"?>
<svg xmlns="http://www.w3.org/2000/svg" xmlns:xlink="http://www.w3.org/1999/xlink" width="24px" height="24px" viewBox="0 0 24 24" version="1.1">
<g id="surface1">
<path style=" stroke:none;fill-rule:nonzero;fill:rgb(14.901961%,14.901961%,14.901961%);fill-opacity:1;" d="M 12.003906 12.46875 C 14.238281 12.464844 16.15625 10.886719 16.589844 8.699219 C 17.023438 6.507812 15.851562 4.316406 13.789062 3.464844 C 11.726562 2.613281 9.347656 3.335938 8.109375 5.191406 C 6.867188 7.046875 7.113281 9.519531 8.691406 11.097656 C 9.570312 11.976562 10.761719 12.472656 12.003906 12.46875 Z M 9.445312 5.230469 C 10.664062 4.007812 12.578125 3.820312 14.015625 4.777344 C 15.453125 5.738281 16.011719 7.578125 15.347656 9.175781 C 14.6875 10.769531 12.992188 11.675781 11.296875 11.339844 C 9.605469 11.003906 8.382812 9.515625 8.382812 7.789062 C 8.382812 6.828125 8.765625 5.90625 9.445312 5.230469 Z M 9.445312 5.230469 "/>
<path style=" stroke:none;fill-rule:nonzero;fill:rgb(14.901961%,14.901961%,14.901961%);fill-opacity:1;" d="M 12.003906 13.210938 C 8.039062 13.210938 4.8125 16.4375 4.8125 20.402344 C 4.8125 20.695312 5.050781 20.933594 5.34375 20.933594 L 18.664062 20.933594 C 18.957031 20.933594 19.195312 20.695312 19.195312 20.402344 C 19.195312 16.4375 15.96875 13.210938 12.003906 13.210938 Z M 5.898438 19.871094 C 6.167969 16.738281 8.804688 14.273438 12.003906 14.273438 C 15.203125 14.273438 17.839844 16.738281 18.109375 19.871094 Z M 5.898438 19.871094 "/>
</g>
</svg>
