<?xml version="1.0" encoding="UTF-8"?>
<svg xmlns="http://www.w3.org/2000/svg" xmlns:xlink="http://www.w3.org/1999/xlink" width="49px" height="49px" viewBox="0 0 49 49" version="1.1">
<g id="surface1">
<path style=" stroke:none;fill-rule:nonzero;fill:rgb(99.607843%,99.607843%,99.607843%);fill-opacity:1;" d="M 27.832031 49.097656 C 18.554688 49.097656 9.328125 49.097656 0.0976562 49.097656 C 0.0976562 32.765625 0.0976562 16.429688 0.0976562 0.0976562 C 16.429688 0.0976562 32.765625 0.0976562 49.097656 0.0976562 C 49.097656 16.429688 49.097656 32.765625 49.097656 49.097656 C 42.027344 49.097656 34.953125 49.097656 27.832031 49.097656 M 14.753906 32.457031 C 14.703125 32.511719 14.648438 32.566406 14.519531 32.625 C 14.230469 32.804688 14.054688 33.714844 14.269531 33.933594 C 14.3125 33.976562 14.378906 33.992188 14.4375 34.015625 C 14.609375 34.085938 14.792969 34.132812 14.953125 34.226562 C 15.363281 34.46875 15.765625 34.734375 16.175781 35.054688 C 16.265625 35.097656 16.355469 35.140625 16.472656 35.246094 C 16.976562 35.773438 17.6875 36.101562 18 36.824219 C 17.488281 36.503906 16.976562 36.1875 16.433594 35.820312 C 16.382812 35.804688 16.328125 35.785156 16.25 35.707031 C 15.597656 35.238281 14.945312 34.773438 14.203125 34.242188 C 14.203125 34.503906 14.203125 34.644531 14.203125 34.785156 C 14.203125 35.90625 14.199219 37.03125 14.203125 38.15625 C 14.203125 38.441406 14.144531 38.757812 14.542969 38.941406 C 14.597656 38.953125 14.648438 38.96875 14.765625 39 C 14.808594 38.996094 14.851562 38.988281 14.976562 39 C 15.113281 38.992188 15.25 38.984375 15.464844 38.996094 C 15.898438 39.03125 16.171875 38.84375 16.363281 38.417969 C 16.390625 38.421875 16.417969 38.421875 16.460938 38.5 C 16.46875 38.773438 16.53125 39.058594 16.480469 39.324219 C 16.402344 39.742188 16.488281 40.066406 16.867188 40.257812 C 17.085938 40.367188 17.339844 40.453125 17.578125 40.457031 C 18.433594 40.480469 18.546875 40.359375 18.546875 39.523438 C 18.546875 38.449219 18.546875 37.375 18.550781 36.300781 C 18.550781 36.128906 18.550781 35.960938 18.550781 35.746094 C 20.652344 35.746094 22.671875 35.746094 24.757812 35.777344 C 24.988281 36.308594 25.21875 36.839844 25.449219 37.371094 C 25.511719 37.363281 25.574219 37.355469 25.636719 37.347656 C 25.84375 36.3125 26.054688 35.277344 26.261719 34.242188 C 26.289062 34.25 26.3125 34.253906 26.335938 34.261719 C 26.539062 35.132812 26.742188 36.007812 26.941406 36.878906 C 27 36.890625 27.058594 36.898438 27.117188 36.910156 C 27.261719 36.691406 27.441406 36.484375 27.546875 36.25 C 27.722656 35.839844 28.007812 35.75 28.429688 35.757812 C 29.765625 35.78125 31.105469 35.753906 32.53125 35.761719 C 33.273438 35.761719 34.015625 35.761719 34.808594 35.761719 C 34.808594 36.300781 34.808594 36.769531 34.792969 37.328125 C 34.796875 37.59375 34.804688 37.855469 34.800781 38.195312 C 34.8125 38.269531 34.824219 38.34375 34.796875 38.5 C 34.800781 38.863281 34.804688 39.226562 34.792969 39.65625 C 34.800781 39.699219 34.804688 39.746094 34.796875 39.863281 C 34.933594 40.410156 35.03125 40.46875 35.8125 40.46875 C 36.519531 40.464844 36.886719 40.089844 36.847656 39.414062 C 36.839844 39.320312 36.847656 39.222656 36.847656 39.128906 C 36.847656 38.050781 36.847656 36.972656 36.847656 35.867188 C 36.253906 36.222656 35.714844 36.542969 35.171875 36.792969 C 35.636719 36.363281 36.109375 35.941406 36.566406 35.5 C 36.683594 35.386719 36.832031 35.230469 36.839844 35.089844 C 36.863281 34.277344 36.851562 33.464844 36.851562 32.585938 C 36.226562 32.847656 35.664062 33.101562 35.089844 33.316406 C 34.847656 33.410156 34.777344 33.542969 34.785156 33.785156 C 34.800781 34.3125 34.789062 34.839844 34.789062 35.425781 C 33.96875 35.425781 33.207031 35.425781 32.355469 35.402344 C 32.082031 35.394531 31.808594 35.390625 31.5625 35.316406 C 31.527344 35.066406 31.496094 34.820312 31.464844 34.496094 C 31.277344 33.875 31.019531 33.261719 30.910156 32.625 C 30.78125 31.847656 30.558594 30.988281 30.761719 30.273438 C 31.03125 29.316406 31.199219 28.382812 31.203125 27.398438 C 31.203125 27.203125 31.3125 26.945312 31.460938 26.824219 C 32.03125 26.359375 32.371094 25.796875 32.441406 25.066406 C 32.449219 25.003906 32.5 24.949219 32.53125 24.890625 C 32.589844 24.910156 32.648438 24.925781 32.703125 24.945312 C 32.578125 25.433594 32.449219 25.921875 32.316406 26.433594 C 33.269531 26.832031 34.304688 27.144531 35.335938 26.902344 C 36.136719 26.714844 36.835938 26.851562 37.574219 27.042969 C 38.832031 27.371094 39.003906 27.289062 39.550781 26.097656 C 39.648438 25.890625 39.726562 25.675781 39.785156 25.457031 C 40.152344 24.113281 40.144531 22.753906 39.679688 21.457031 C 39.09375 19.808594 38.675781 18.160156 38.816406 16.394531 C 38.828125 16.261719 38.683594 16.0625 38.554688 15.976562 C 37.609375 15.371094 36.769531 14.664062 36.167969 13.699219 C 36.09375 13.578125 35.921875 13.457031 35.789062 13.449219 C 35.210938 13.429688 34.25 14.324219 34.226562 14.921875 C 34.207031 15.375 34.214844 15.839844 34.304688 16.28125 C 34.464844 17.089844 35.238281 17.363281 35.796875 17.808594 C 35.925781 17.910156 36.257812 17.769531 36.496094 17.71875 C 36.609375 17.695312 36.710938 17.621094 36.847656 17.550781 C 37 18.570312 36.890625 19.507812 36.582031 20.441406 C 36.402344 20.980469 36.285156 21.542969 36.195312 22.101562 C 36.167969 22.289062 36.316406 22.507812 36.34375 22.769531 C 36.308594 22.796875 36.273438 22.824219 36.183594 22.816406 C 35.46875 21.886719 34.445312 21.75 33.375 21.746094 C 32.601562 21.746094 32.621094 21.75 32.613281 22.5 C 32.609375 22.769531 32.539062 23.054688 32.421875 23.292969 C 32.339844 23.457031 32.117188 23.554688 31.960938 23.679688 C 31.929688 23.648438 31.898438 23.617188 31.871094 23.585938 C 32.28125 23.105469 32.40625 22.558594 32.285156 21.945312 C 32.066406 20.832031 30.5625 19.648438 29.1875 19.542969 C 29.140625 19.726562 29.082031 19.910156 29.046875 20.097656 C 28.378906 23.453125 27.71875 26.804688 27.050781 30.15625 C 26.863281 31.109375 26.65625 32.0625 26.410156 33.023438 C 26.34375 33.03125 26.277344 33.042969 26.171875 32.984375 C 26.34375 31.710938 26.503906 30.433594 26.691406 29.160156 C 27.148438 25.984375 27.621094 22.804688 28.082031 19.628906 C 28.097656 19.511719 28.027344 19.367188 27.960938 19.257812 C 27.789062 18.984375 27.578125 18.734375 27.421875 18.453125 C 27.25 18.144531 27.175781 17.8125 27.496094 17.527344 C 27.8125 17.246094 28.140625 17.058594 28.59375 17.277344 C 29.0625 17.5 29.554688 17.679688 30.042969 17.859375 C 30.425781 18 30.730469 17.835938 30.773438 17.453125 C 30.828125 16.964844 30.757812 16.460938 30.769531 15.960938 C 30.769531 15.796875 30.796875 15.578125 30.898438 15.484375 C 31.207031 15.203125 31.246094 15.019531 30.925781 14.6875 C 30.660156 14.410156 30.222656 14.074219 30.472656 13.609375 C 30.839844 12.929688 30.644531 12.386719 30.191406 11.875 C 29.859375 11.496094 29.519531 11.117188 29.140625 10.789062 C 27.851562 9.6875 26.171875 9.507812 24.664062 10.28125 C 23.636719 10.804688 22.96875 12.339844 23.425781 13.277344 C 23.691406 13.808594 23.613281 14.261719 23.429688 14.773438 C 23.285156 15.171875 23.066406 15.300781 22.632812 15.273438 C 21.445312 15.207031 20.253906 15.171875 19.0625 15.171875 C 18.515625 15.171875 17.957031 15.253906 17.417969 15.363281 C 17.152344 15.417969 16.984375 15.390625 16.773438 15.214844 C 16.03125 14.589844 15.1875 14.1875 14.191406 14.199219 C 14.046875 14.203125 13.84375 14.285156 13.769531 14.398438 C 13.449219 14.882812 13.011719 15.09375 12.449219 14.992188 C 12.449219 14.964844 12.449219 14.9375 12.523438 14.894531 C 13.074219 14.804688 13.457031 14.515625 13.734375 14.015625 C 14.472656 12.691406 15.246094 11.386719 16.007812 10.078125 C 16.332031 9.53125 16.707031 9.421875 17.261719 9.664062 C 17.847656 9.925781 18.4375 10.148438 19.085938 9.804688 C 19.246094 9.714844 19.460938 9.726562 19.652344 9.691406 C 19.660156 9.726562 19.667969 9.757812 19.675781 9.792969 C 19.523438 9.855469 19.371094 9.917969 19.210938 9.988281 C 20.0625 10.871094 20.339844 10.886719 21.203125 10.101562 C 21.242188 10.066406 21.273438 10.027344 21.3125 10.003906 C 22.179688 9.53125 22.359375 8.777344 22.25 7.859375 C 22.175781 7.265625 21.96875 6.964844 21.378906 6.863281 C 21.058594 6.808594 20.738281 6.753906 20.414062 6.707031 C 19.125 6.515625 17.835938 6.246094 16.527344 6.539062 C 12.855469 7.363281 10.019531 9.425781 7.867188 12.472656 C 7.472656 13.03125 7.53125 13.644531 7.824219 14.238281 C 8.082031 14.761719 8.347656 15.285156 8.632812 15.796875 C 10.28125 18.796875 12.644531 20.933594 15.992188 21.878906 C 16.097656 21.910156 16.191406 21.984375 16.289062 22.039062 C 16.277344 22.078125 16.261719 22.113281 16.25 22.148438 C 15.875 22.085938 15.503906 22.019531 15.085938 21.949219 C 15.128906 22.066406 15.152344 22.140625 15.179688 22.210938 C 15.902344 23.933594 16.988281 25.335938 18.507812 26.464844 C 19.667969 27.320312 20.703125 28.359375 21.742188 29.367188 C 22.304688 29.914062 22.265625 30.535156 21.820312 31.148438 C 20.914062 32.398438 20.632812 33.773438 21.070312 35.328125 C 21.070312 35.347656 21.070312 35.363281 20.980469 35.402344 C 20.1875 35.402344 19.390625 35.402344 18.578125 35.402344 C 18.523438 35.074219 18.445312 34.792969 18.441406 34.507812 C 18.441406 34.199219 18.523438 33.890625 18.53125 33.582031 C 18.535156 33.507812 18.417969 33.394531 18.328125 33.355469 C 17.734375 33.101562 17.132812 32.859375 16.574219 32.632812 C 16.453125 32.765625 16.363281 32.871094 16.238281 32.894531 C 16.03125 32.746094 15.84375 32.539062 15.613281 32.472656 C 15.363281 32.402344 15.074219 32.46875 14.753906 32.457031 M 25.667969 38.207031 C 25.96875 38.191406 26.09375 38.300781 26.085938 38.632812 C 26.0625 39.480469 26.078125 40.328125 26.078125 41.175781 C 26.078125 41.445312 26.050781 41.71875 26.453125 41.71875 C 26.871094 41.714844 26.796875 41.410156 26.796875 41.160156 C 26.804688 40.34375 26.800781 39.527344 26.804688 38.714844 C 26.804688 38.472656 26.753906 38.214844 27.140625 38.191406 C 27.203125 38.191406 27.292969 37.933594 27.292969 37.792969 C 27.292969 37.707031 27.148438 37.546875 27.070312 37.546875 C 26.570312 37.554688 26.070312 37.59375 25.535156 37.617188 C 25.535156 37.617188 25.496094 37.617188 25.433594 37.570312 C 24.808594 37.558594 24.183594 37.53125 23.5625 37.546875 C 23.464844 37.550781 23.289062 37.761719 23.289062 37.878906 C 23.269531 39.019531 23.277344 40.164062 23.277344 41.304688 C 23.277344 41.542969 23.324219 41.722656 23.617188 41.730469 C 23.929688 41.738281 24.003906 41.566406 24 41.296875 C 23.992188 40.875 24 40.457031 24 40.035156 C 24.035156 40.054688 24.074219 40.078125 24.113281 40.097656 C 24.25 39.960938 24.507812 39.808594 24.492188 39.691406 C 24.464844 39.488281 24.265625 39.308594 24.136719 39.121094 C 24.097656 39.144531 24.058594 39.167969 24.019531 39.191406 C 24.003906 38.996094 23.988281 38.804688 23.988281 38.53125 C 23.996094 38.429688 24 38.324219 24.09375 38.214844 C 24.316406 38.203125 24.542969 38.191406 24.800781 38.179688 C 24.800781 39.171875 24.800781 40.164062 24.800781 41.15625 C 24.800781 41.742188 24.898438 41.808594 25.519531 41.609375 C 25.515625 41.523438 25.515625 41.433594 25.507812 41.277344 C 25.507812 41.207031 25.511719 41.140625 25.554688 41 C 25.539062 40.265625 25.527344 39.53125 25.507812 38.722656 C 25.511719 38.589844 25.511719 38.460938 25.550781 38.292969 C 25.5625 38.261719 25.574219 38.226562 25.667969 38.207031 M 38.789062 32.574219 C 38.695312 32.539062 38.601562 32.507812 38.421875 32.457031 C 38.199219 32.457031 37.976562 32.449219 37.753906 32.457031 C 37.257812 32.480469 37.074219 32.6875 37.050781 33.269531 C 37.058594 33.289062 37.0625 33.304688 37.050781 33.394531 C 37.054688 33.464844 37.058594 33.539062 37.046875 33.664062 C 37.050781 33.679688 37.058594 33.695312 37.046875 33.804688 C 37.046875 34.214844 37.046875 34.628906 37.046875 35.117188 C 37.265625 34.96875 37.410156 34.871094 37.554688 34.777344 C 37.929688 34.527344 38.300781 34.265625 38.691406 34.035156 C 38.859375 33.933594 39.191406 34.066406 39.152344 33.699219 C 39.113281 33.320312 39.320312 32.863281 38.789062 32.574219 M 20.921875 38.210938 C 20.921875 38.210938 20.886719 38.210938 20.875 38.15625 C 20.84375 38.109375 20.816406 38.0625 20.777344 37.945312 C 20.496094 37.597656 19.566406 37.359375 19.238281 37.570312 C 19.164062 37.617188 19.113281 37.757812 19.109375 37.855469 C 19.101562 39.03125 19.097656 40.203125 19.117188 41.375 C 19.117188 41.492188 19.277344 41.703125 19.359375 41.699219 C 19.738281 41.6875 20.113281 41.613281 20.558594 41.550781 C 20.675781 41.421875 20.796875 41.296875 20.910156 41.179688 C 21.242188 41.535156 21.566406 41.910156 22.113281 41.707031 C 22.640625 41.511719 22.746094 41.066406 22.734375 40.550781 C 22.714844 39.898438 22.730469 39.246094 22.730469 38.59375 C 22.726562 37.972656 22.5 37.617188 22.03125 37.503906 C 21.578125 37.398438 21.230469 37.625 20.921875 38.210938 M 39.144531 37.578125 C 39.101562 37.53125 39.0625 37.488281 39.085938 37.386719 C 39.085938 36.375 39.085938 35.367188 39.085938 34.3125 C 38.472656 34.714844 37.878906 35.085938 37.3125 35.496094 C 37.171875 35.597656 37.066406 35.832031 37.058594 36.007812 C 37.03125 36.742188 37.042969 37.476562 37.046875 38.210938 C 37.050781 38.84375 37.257812 39.019531 38.003906 38.996094 C 38.109375 38.992188 38.214844 38.988281 38.390625 39 C 38.53125 38.96875 38.667969 38.941406 38.871094 38.90625 C 38.945312 38.808594 39.015625 38.710938 39.117188 38.535156 C 39.117188 38.234375 39.121094 37.9375 39.144531 37.578125 M 31.316406 37.585938 C 30.953125 37.441406 30.769531 37.5625 30.722656 37.953125 C 30.6875 38.257812 30.609375 38.558594 30.546875 38.863281 C 30.402344 38.527344 30.371094 38.167969 30.246094 37.84375 C 30.195312 37.707031 29.957031 37.636719 29.800781 37.539062 C 29.746094 37.679688 29.617188 37.835938 29.648438 37.953125 C 29.945312 39.074219 30.242188 40.1875 30.15625 41.367188 C 30.148438 41.472656 30.375 41.597656 30.496094 41.710938 C 30.597656 41.597656 30.796875 41.476562 30.789062 41.375 C 30.6875 40.140625 31.042969 38.988281 31.433594 37.871094 C 31.4375 39.011719 31.449219 40.152344 31.445312 41.292969 C 31.445312 41.5625 31.503906 41.785156 31.8125 41.691406 C 31.9375 41.65625 32.074219 41.433594 32.082031 41.289062 C 32.109375 40.671875 32.09375 40.058594 32.09375 39.441406 C 32.3125 40.042969 32.402344 40.652344 32.527344 41.253906 C 32.5625 41.414062 32.695312 41.558594 32.785156 41.710938 C 32.894531 41.554688 33.0625 41.414062 33.101562 41.246094 C 33.242188 40.613281 33.339844 39.976562 33.453125 39.339844 C 33.550781 39.960938 33.550781 40.574219 33.550781 41.1875 C 33.550781 41.453125 33.511719 41.726562 33.925781 41.71875 C 34.300781 41.710938 34.273438 41.457031 34.273438 41.207031 C 34.273438 40.148438 34.269531 39.085938 34.269531 38.027344 C 34.269531 37.78125 34.308594 37.507812 33.921875 37.535156 C 33.59375 37.554688 33.179688 37.382812 33.132812 37.964844 C 33.097656 38.429688 32.996094 38.890625 32.921875 39.355469 C 32.773438 38.875 32.71875 38.394531 32.625 37.921875 C 32.597656 37.78125 32.453125 37.558594 32.355469 37.554688 C 32.023438 37.542969 31.6875 37.613281 31.316406 37.585938 M 28.046875 41.601562 C 28.308594 41.625 28.566406 41.652344 28.828125 41.671875 C 28.933594 41.679688 29.046875 41.648438 29.144531 41.671875 C 29.40625 41.742188 29.507812 41.640625 29.507812 41.386719 C 29.503906 40.945312 29.519531 40.503906 29.496094 40.0625 C 29.492188 39.941406 29.402344 39.738281 29.328125 39.726562 C 29.128906 39.695312 28.902344 39.710938 28.722656 39.789062 C 28.660156 39.816406 28.703125 40.097656 28.71875 40.261719 C 28.738281 40.480469 28.789062 40.699219 28.792969 40.917969 C 28.792969 40.980469 28.683594 41.046875 28.625 41.113281 C 28.5625 41.050781 28.445312 40.988281 28.445312 40.925781 C 28.433594 40.078125 28.433594 39.230469 28.445312 38.378906 C 28.449219 38.316406 28.5625 38.257812 28.625 38.195312 C 28.683594 38.257812 28.785156 38.316406 28.796875 38.386719 C 28.820312 38.578125 28.804688 38.777344 28.804688 39.109375 C 29.070312 39.019531 29.453125 38.941406 29.449219 38.882812 C 29.433594 38.507812 29.414062 38.089844 29.238281 37.777344 C 29.046875 37.433594 28.613281 37.441406 28.261719 37.574219 C 27.871094 37.722656 27.726562 38.054688 27.734375 38.476562 C 27.75 39.246094 27.71875 40.011719 27.753906 40.777344 C 27.761719 41.039062 27.90625 41.292969 28.046875 41.601562 M 39.398438 35.242188 C 39.398438 35.691406 39.398438 36.140625 39.398438 36.621094 C 39.867188 36.621094 40.269531 36.648438 40.664062 36.613281 C 40.996094 36.582031 41.257812 36.410156 41.230469 36.015625 C 41.210938 35.742188 41.121094 35.46875 41.132812 35.199219 C 41.148438 34.804688 41.078125 34.632812 40.726562 34.609375 C 40.296875 34.578125 39.859375 34.601562 39.398438 34.601562 C 39.398438 34.824219 39.398438 34.984375 39.398438 35.242188 M 13.9375 35.238281 C 13.9375 35.035156 13.9375 34.832031 13.9375 34.597656 C 13.476562 34.597656 13.082031 34.554688 12.707031 34.613281 C 12.503906 34.644531 12.226562 34.824219 12.167969 34.996094 C 12.070312 35.292969 12.148438 35.648438 12.097656 35.96875 C 12.035156 36.378906 12.296875 36.542969 12.589844 36.582031 C 13.019531 36.640625 13.464844 36.597656 13.890625 36.597656 C 13.914062 36.515625 13.929688 36.484375 13.929688 36.453125 C 13.933594 36.082031 13.933594 35.707031 13.9375 35.238281 M 17.507812 31.640625 C 17.839844 31.738281 18.175781 31.835938 18.539062 31.945312 C 18.53125 31.476562 18.683594 31 18.09375 30.851562 C 17.347656 30.664062 16.726562 30.832031 16.53125 31.269531 C 16.832031 31.382812 17.132812 31.5 17.507812 31.640625 M 36.300781 31.449219 C 36.480469 31.382812 36.65625 31.316406 36.832031 31.25 C 36.597656 30.710938 36.144531 30.839844 35.753906 30.835938 C 34.867188 30.820312 34.691406 31.035156 34.851562 31.960938 C 35.316406 31.792969 35.773438 31.632812 36.300781 31.449219 M 18.070312 32.253906 C 17.554688 32.066406 17.039062 31.882812 16.371094 31.640625 C 16.480469 31.960938 16.488281 32.269531 16.617188 32.328125 C 17.226562 32.613281 17.867188 32.828125 18.5 33.074219 C 18.605469 32.652344 18.59375 32.355469 18.070312 32.253906 M 35.21875 32.925781 C 35.613281 32.773438 35.996094 32.589844 36.402344 32.476562 C 36.816406 32.359375 36.964844 32.148438 36.804688 31.738281 C 36.757812 31.742188 36.703125 31.734375 36.660156 31.75 C 36.1875 31.921875 35.722656 32.117188 35.242188 32.261719 C 34.828125 32.382812 34.699219 32.609375 34.839844 33.039062 C 34.9375 33.011719 35.042969 32.984375 35.21875 32.925781 Z M 35.21875 32.925781 "/>
<path style=" stroke:none;fill-rule:nonzero;fill:rgb(26.274511%,26.274511%,27.058825%);fill-opacity:1;" d="M 21.074219 35.269531 C 20.632812 33.773438 20.914062 32.398438 21.820312 31.148438 C 22.265625 30.535156 22.304688 29.914062 21.742188 29.367188 C 20.703125 28.359375 19.667969 27.320312 18.507812 26.464844 C 16.988281 25.335938 15.902344 23.933594 15.179688 22.210938 C 15.152344 22.140625 15.128906 22.066406 15.085938 21.949219 C 15.503906 22.019531 15.875 22.085938 16.25 22.148438 C 16.261719 22.113281 16.277344 22.078125 16.289062 22.039062 C 16.191406 21.984375 16.097656 21.910156 15.992188 21.878906 C 12.644531 20.933594 10.28125 18.796875 8.632812 15.796875 C 8.347656 15.285156 8.082031 14.761719 7.824219 14.238281 C 7.53125 13.644531 7.472656 13.03125 7.867188 12.472656 C 10.019531 9.425781 12.855469 7.363281 16.527344 6.539062 C 17.835938 6.246094 19.125 6.515625 20.414062 6.707031 C 20.738281 6.753906 21.058594 6.808594 21.378906 6.863281 C 21.96875 6.964844 22.175781 7.265625 22.25 7.859375 C 22.359375 8.777344 22.179688 9.53125 21.3125 10.003906 C 21.273438 10.027344 21.242188 10.066406 21.203125 10.101562 C 20.339844 10.886719 20.0625 10.871094 19.210938 9.988281 C 19.371094 9.917969 19.523438 9.855469 19.675781 9.792969 C 19.667969 9.757812 19.660156 9.726562 19.652344 9.691406 C 19.460938 9.726562 19.246094 9.714844 19.085938 9.804688 C 18.4375 10.148438 17.847656 9.925781 17.261719 9.664062 C 16.707031 9.421875 16.332031 9.53125 16.007812 10.078125 C 15.246094 11.386719 14.472656 12.691406 13.734375 14.015625 C 13.457031 14.515625 13.074219 14.804688 12.445312 14.894531 C 11.753906 14.746094 11.144531 14.59375 10.402344 14.414062 C 10.886719 14.832031 11.824219 15.105469 12.445312 15.074219 C 13.011719 15.09375 13.449219 14.882812 13.769531 14.398438 C 13.84375 14.285156 14.046875 14.203125 14.191406 14.199219 C 15.1875 14.1875 16.03125 14.589844 16.773438 15.214844 C 16.984375 15.390625 17.152344 15.417969 17.417969 15.363281 C 17.957031 15.253906 18.515625 15.171875 19.0625 15.171875 C 20.253906 15.171875 21.445312 15.207031 22.632812 15.273438 C 23.066406 15.300781 23.285156 15.171875 23.429688 14.773438 C 23.613281 14.261719 23.691406 13.808594 23.425781 13.277344 C 22.96875 12.339844 23.636719 10.804688 24.664062 10.28125 C 26.171875 9.507812 27.851562 9.6875 29.140625 10.789062 C 29.519531 11.117188 29.859375 11.496094 30.191406 11.875 C 30.644531 12.386719 30.839844 12.929688 30.472656 13.609375 C 30.222656 14.074219 30.660156 14.410156 30.925781 14.6875 C 31.246094 15.019531 31.207031 15.203125 30.898438 15.484375 C 30.796875 15.578125 30.769531 15.796875 30.769531 15.960938 C 30.757812 16.460938 30.828125 16.964844 30.773438 17.453125 C 30.730469 17.835938 30.425781 18 30.042969 17.859375 C 29.554688 17.679688 29.0625 17.5 28.59375 17.277344 C 28.140625 17.058594 27.8125 17.246094 27.496094 17.527344 C 27.175781 17.8125 27.25 18.144531 27.421875 18.453125 C 27.578125 18.734375 27.789062 18.984375 27.960938 19.257812 C 28.027344 19.367188 28.097656 19.511719 28.082031 19.628906 C 27.621094 22.804688 27.148438 25.984375 26.691406 29.160156 C 26.503906 30.433594 26.34375 31.710938 26.179688 33.035156 C 26.1875 33.089844 26.164062 33.125 26.128906 33.125 C 26.050781 33.222656 26.011719 33.320312 25.9375 33.4375 C 25.804688 34.03125 25.703125 34.601562 25.570312 35.195312 C 25.527344 35.390625 25.511719 35.566406 25.492188 35.832031 C 25.289062 35.652344 25.132812 35.515625 24.960938 35.335938 C 23.65625 35.289062 22.363281 35.28125 21.074219 35.269531 Z M 21.074219 35.269531 "/>
<path style=" stroke:none;fill-rule:nonzero;fill:rgb(11.764706%,46.27451%,72.549021%);fill-opacity:1;" d="M 36.382812 22.710938 C 36.316406 22.507812 36.167969 22.289062 36.195312 22.101562 C 36.285156 21.542969 36.402344 20.980469 36.582031 20.441406 C 36.890625 19.507812 37 18.570312 36.847656 17.550781 C 36.710938 17.621094 36.609375 17.695312 36.496094 17.71875 C 36.257812 17.769531 35.925781 17.910156 35.796875 17.808594 C 35.238281 17.363281 34.464844 17.089844 34.304688 16.28125 C 34.214844 15.839844 34.207031 15.375 34.226562 14.921875 C 34.25 14.324219 35.210938 13.429688 35.789062 13.449219 C 35.921875 13.457031 36.09375 13.578125 36.167969 13.699219 C 36.769531 14.664062 37.609375 15.371094 38.554688 15.976562 C 38.683594 16.0625 38.828125 16.261719 38.816406 16.394531 C 38.675781 18.160156 39.09375 19.808594 39.679688 21.457031 C 40.144531 22.753906 40.152344 24.113281 39.785156 25.457031 C 39.726562 25.675781 39.648438 25.890625 39.550781 26.097656 C 39.003906 27.289062 38.832031 27.371094 37.574219 27.042969 C 36.835938 26.851562 36.136719 26.714844 35.335938 26.902344 C 34.304688 27.144531 33.269531 26.832031 32.316406 26.433594 C 32.449219 25.921875 32.578125 25.433594 32.703125 24.945312 C 32.648438 24.925781 32.589844 24.910156 32.53125 24.890625 C 32.5 24.949219 32.449219 25.003906 32.441406 25.066406 C 32.371094 25.796875 32.03125 26.359375 31.460938 26.824219 C 31.3125 26.945312 31.203125 27.203125 31.203125 27.398438 C 31.199219 28.382812 31.03125 29.316406 30.761719 30.273438 C 30.558594 30.988281 30.78125 31.847656 30.910156 32.625 C 31.019531 33.261719 31.277344 33.875 31.460938 34.578125 C 31.449219 34.816406 31.4375 34.976562 31.425781 35.152344 C 30.382812 35.152344 29.378906 35.128906 28.375 35.167969 C 28.042969 35.179688 27.515625 34.910156 27.441406 35.574219 C 27.441406 35.574219 27.441406 35.574219 27.417969 35.585938 C 27.371094 35.613281 27.351562 35.640625 27.328125 35.691406 C 27.226562 35.632812 27.140625 35.554688 27.058594 35.429688 C 26.898438 34.726562 26.734375 34.066406 26.566406 33.371094 C 26.53125 33.261719 26.496094 33.1875 26.460938 33.089844 C 26.460938 33.046875 26.460938 33.03125 26.460938 33.011719 C 26.65625 32.0625 26.863281 31.109375 27.050781 30.15625 C 27.71875 26.804688 28.378906 23.453125 29.046875 20.097656 C 29.082031 19.910156 29.140625 19.726562 29.1875 19.542969 C 30.5625 19.648438 32.066406 20.832031 32.285156 21.945312 C 32.40625 22.558594 32.28125 23.105469 31.871094 23.585938 C 31.898438 23.617188 31.929688 23.648438 31.960938 23.679688 C 32.117188 23.554688 32.339844 23.457031 32.421875 23.292969 C 32.539062 23.054688 32.609375 22.769531 32.613281 22.5 C 32.621094 21.75 32.601562 21.746094 33.375 21.746094 C 34.445312 21.75 35.46875 21.886719 36.21875 22.867188 C 36.453125 23.363281 36.648438 23.800781 36.886719 24.328125 C 36.898438 23.664062 36.75 23.152344 36.382812 22.710938 Z M 36.382812 22.710938 "/>
<path style=" stroke:none;fill-rule:nonzero;fill:rgb(27.450982%,27.450982%,28.235295%);fill-opacity:1;" d="M 24.695312 35.746094 C 22.671875 35.746094 20.652344 35.746094 18.550781 35.746094 C 18.550781 35.960938 18.550781 36.128906 18.550781 36.300781 C 18.546875 37.375 18.546875 38.449219 18.546875 39.523438 C 18.546875 40.359375 18.433594 40.480469 17.578125 40.457031 C 17.339844 40.453125 17.085938 40.367188 16.867188 40.257812 C 16.488281 40.066406 16.402344 39.742188 16.480469 39.324219 C 16.53125 39.058594 16.46875 38.773438 16.460938 38.421875 C 16.464844 37.519531 16.464844 36.695312 16.464844 35.867188 C 16.976562 36.1875 17.488281 36.503906 18 36.824219 C 17.6875 36.101562 16.976562 35.773438 16.46875 35.167969 C 16.464844 34.480469 16.476562 33.867188 16.457031 33.253906 C 16.457031 33.160156 16.332031 33.066406 16.265625 32.96875 C 16.265625 32.96875 16.269531 32.972656 16.269531 32.972656 C 16.363281 32.871094 16.453125 32.765625 16.574219 32.632812 C 17.132812 32.859375 17.734375 33.101562 18.328125 33.355469 C 18.417969 33.394531 18.535156 33.507812 18.53125 33.582031 C 18.523438 33.890625 18.441406 34.199219 18.441406 34.507812 C 18.445312 34.792969 18.523438 35.074219 18.578125 35.402344 C 19.390625 35.402344 20.1875 35.402344 21.070312 35.402344 C 22.304688 35.414062 23.449219 35.421875 24.601562 35.457031 C 24.632812 35.570312 24.664062 35.660156 24.695312 35.746094 Z M 24.695312 35.746094 "/>
<path style=" stroke:none;fill-rule:nonzero;fill:rgb(30.588236%,32.549021%,33.725491%);fill-opacity:1;" d="M 31.355469 37.652344 C 31.6875 37.613281 32.023438 37.542969 32.355469 37.554688 C 32.453125 37.558594 32.597656 37.78125 32.625 37.921875 C 32.71875 38.394531 32.773438 38.875 32.921875 39.355469 C 32.996094 38.890625 33.097656 38.429688 33.132812 37.964844 C 33.179688 37.382812 33.59375 37.554688 33.921875 37.535156 C 34.308594 37.507812 34.269531 37.78125 34.269531 38.027344 C 34.269531 39.085938 34.273438 40.148438 34.273438 41.207031 C 34.273438 41.457031 34.300781 41.710938 33.925781 41.71875 C 33.511719 41.726562 33.550781 41.453125 33.550781 41.1875 C 33.550781 40.574219 33.550781 39.960938 33.453125 39.339844 C 33.339844 39.976562 33.242188 40.613281 33.101562 41.246094 C 33.0625 41.414062 32.894531 41.554688 32.785156 41.710938 C 32.695312 41.558594 32.5625 41.414062 32.527344 41.253906 C 32.402344 40.652344 32.3125 40.042969 32.09375 39.441406 C 32.09375 40.058594 32.109375 40.671875 32.082031 41.289062 C 32.074219 41.433594 31.9375 41.65625 31.8125 41.691406 C 31.503906 41.785156 31.445312 41.5625 31.445312 41.292969 C 31.449219 40.152344 31.4375 39.011719 31.394531 37.820312 C 31.359375 37.730469 31.355469 37.691406 31.355469 37.652344 Z M 31.355469 37.652344 "/>
<path style=" stroke:none;fill-rule:nonzero;fill:rgb(27.058825%,27.058825%,27.843139%);fill-opacity:1;" d="M 38.808594 38.910156 C 38.667969 38.941406 38.53125 38.96875 38.359375 38.957031 C 38.335938 38.828125 38.34375 38.742188 38.351562 38.652344 C 38.265625 38.667969 38.152344 38.65625 38.097656 38.707031 C 38.019531 38.773438 37.980469 38.886719 37.925781 38.980469 C 37.257812 39.019531 37.050781 38.84375 37.046875 38.210938 C 37.042969 37.476562 37.03125 36.742188 37.058594 36.007812 C 37.066406 35.832031 37.171875 35.597656 37.3125 35.496094 C 37.878906 35.085938 38.472656 34.714844 39.085938 34.3125 C 39.085938 35.367188 39.085938 36.375 39.023438 37.410156 C 38.84375 37.519531 38.734375 37.605469 38.621094 37.691406 C 38.652344 37.734375 38.683594 37.777344 38.714844 37.820312 C 38.851562 37.761719 38.988281 37.699219 39.121094 37.636719 C 39.121094 37.9375 39.117188 38.234375 39.066406 38.574219 C 38.945312 38.714844 38.878906 38.8125 38.808594 38.910156 M 37.574219 38.695312 C 37.601562 38.644531 37.628906 38.597656 37.65625 38.546875 C 37.601562 38.527344 37.546875 38.507812 37.488281 38.488281 C 37.5 38.550781 37.507812 38.617188 37.574219 38.695312 M 37.914062 38.203125 C 37.890625 38.28125 37.867188 38.359375 37.84375 38.433594 C 37.878906 38.445312 37.914062 38.453125 37.953125 38.460938 C 37.957031 38.371094 37.964844 38.28125 37.914062 38.203125 M 38.472656 37.957031 C 38.445312 37.925781 38.417969 37.898438 38.390625 37.871094 C 38.378906 37.882812 38.355469 37.902344 38.355469 37.902344 C 38.382812 37.933594 38.410156 37.960938 38.472656 37.957031 M 38.683594 37.140625 C 38.707031 37.15625 38.734375 37.171875 38.757812 37.1875 C 38.742188 37.164062 38.726562 37.136719 38.683594 37.140625 Z M 38.683594 37.140625 "/>
<path style=" stroke:none;fill-rule:nonzero;fill:rgb(27.058825%,27.058825%,27.843139%);fill-opacity:1;" d="M 34.8125 39.59375 C 34.804688 39.226562 34.800781 38.863281 34.847656 38.449219 C 34.867188 38.308594 34.839844 38.214844 34.808594 38.121094 C 34.804688 37.855469 34.796875 37.59375 34.832031 37.28125 C 34.976562 37.109375 35.078125 36.984375 35.179688 36.863281 C 35.714844 36.542969 36.253906 36.222656 36.847656 35.867188 C 36.847656 36.972656 36.847656 38.050781 36.847656 39.128906 C 36.847656 39.222656 36.839844 39.320312 36.847656 39.414062 C 36.886719 40.089844 36.519531 40.464844 35.8125 40.46875 C 35.03125 40.46875 34.933594 40.410156 34.832031 39.820312 C 34.890625 39.75 34.921875 39.71875 34.949219 39.6875 C 34.902344 39.65625 34.855469 39.625 34.8125 39.59375 Z M 34.8125 39.59375 "/>
<path style=" stroke:none;fill-rule:nonzero;fill:rgb(27.058825%,27.058825%,27.843139%);fill-opacity:1;" d="M 16.277344 38.417969 C 16.171875 38.84375 15.898438 39.03125 15.421875 38.953125 C 15.261719 38.816406 15.148438 38.71875 15.03125 38.625 C 14.988281 38.746094 14.941406 38.867188 14.894531 38.984375 C 14.851562 38.988281 14.808594 38.996094 14.730469 38.964844 C 14.628906 38.917969 14.566406 38.910156 14.507812 38.898438 C 14.144531 38.757812 14.203125 38.441406 14.203125 38.15625 C 14.199219 37.03125 14.203125 35.90625 14.203125 34.785156 C 14.203125 34.644531 14.203125 34.503906 14.203125 34.242188 C 14.945312 34.773438 15.597656 35.238281 16.253906 35.785156 C 16.265625 36.710938 16.273438 37.566406 16.277344 38.417969 M 14.976562 38.015625 C 14.949219 37.9375 14.917969 37.859375 14.890625 37.785156 C 14.859375 37.800781 14.828125 37.816406 14.792969 37.832031 C 14.84375 37.90625 14.890625 37.980469 14.976562 38.015625 M 15.324219 38.335938 C 15.363281 38.339844 15.402344 38.339844 15.441406 38.339844 C 15.441406 38.324219 15.445312 38.292969 15.441406 38.292969 C 15.402344 38.289062 15.367188 38.289062 15.324219 38.335938 M 14.480469 37.613281 C 14.464844 37.621094 14.445312 37.625 14.429688 37.632812 C 14.449219 37.636719 14.464844 37.640625 14.480469 37.613281 M 15.632812 38.652344 C 15.632812 38.652344 15.640625 38.664062 15.632812 38.652344 M 14.648438 37.789062 C 14.648438 37.789062 14.644531 37.777344 14.648438 37.789062 Z M 14.648438 37.789062 "/>
<path style=" stroke:none;fill-rule:nonzero;fill:rgb(27.843139%,27.843139%,28.627452%);fill-opacity:1;" d="M 35.175781 36.828125 C 35.078125 36.984375 34.976562 37.109375 34.839844 37.234375 C 34.808594 36.769531 34.808594 36.300781 34.808594 35.761719 C 34.015625 35.761719 33.273438 35.761719 32.484375 35.722656 C 32.441406 35.597656 32.441406 35.511719 32.445312 35.425781 C 33.207031 35.425781 33.96875 35.425781 34.789062 35.425781 C 34.789062 34.839844 34.800781 34.3125 34.785156 33.785156 C 34.777344 33.542969 34.847656 33.410156 35.089844 33.316406 C 35.664062 33.101562 36.226562 32.847656 36.851562 32.585938 C 36.851562 33.464844 36.863281 34.277344 36.839844 35.089844 C 36.832031 35.230469 36.683594 35.386719 36.566406 35.5 C 36.109375 35.941406 35.636719 36.363281 35.175781 36.828125 Z M 35.175781 36.828125 "/>
<path style=" stroke:none;fill-rule:nonzero;fill:rgb(15.686275%,46.27451%,69.803923%);fill-opacity:1;" d="M 20.785156 38.015625 C 20.816406 38.0625 20.84375 38.109375 20.875 38.230469 C 20.875 39.160156 20.875 40.019531 20.875 40.878906 C 20.902344 40.875 20.925781 40.875 20.953125 40.875 C 20.953125 39.988281 20.953125 39.097656 20.953125 38.210938 C 21.230469 37.625 21.578125 37.398438 22.03125 37.503906 C 22.5 37.617188 22.726562 37.972656 22.730469 38.59375 C 22.730469 39.246094 22.714844 39.898438 22.734375 40.550781 C 22.746094 41.066406 22.640625 41.511719 22.113281 41.707031 C 21.566406 41.910156 21.242188 41.535156 20.910156 41.179688 C 20.796875 41.296875 20.675781 41.421875 20.519531 41.550781 C 20.484375 41.554688 20.472656 41.542969 20.480469 41.507812 C 20.582031 41.183594 20.75 40.902344 20.761719 40.609375 C 20.796875 39.753906 20.769531 38.894531 20.769531 38.027344 C 20.777344 38.023438 20.785156 38.015625 20.785156 38.015625 M 22.011719 40.953125 C 22.035156 40.925781 22.039062 40.894531 22.03125 40.773438 C 22.027344 40.085938 22.023438 39.398438 22.042969 38.640625 C 22.023438 38.527344 22 38.414062 21.976562 38.300781 C 21.976562 38.300781 21.96875 38.296875 21.9375 38.238281 C 21.851562 38.234375 21.761719 38.230469 21.617188 38.261719 C 21.625 38.410156 21.632812 38.558594 21.65625 38.78125 C 21.652344 38.855469 21.644531 38.933594 21.589844 39.070312 C 21.570312 39.683594 21.550781 40.292969 21.539062 40.902344 C 21.539062 40.921875 21.613281 40.945312 21.6875 40.988281 C 21.6875 40.988281 21.726562 40.996094 21.726562 40.988281 C 21.726562 40.988281 21.734375 40.996094 21.769531 41.042969 C 21.832031 41.019531 21.898438 40.996094 21.964844 40.976562 C 21.964844 40.976562 21.96875 40.976562 22.011719 40.953125 Z M 22.011719 40.953125 "/>
<path style=" stroke:none;fill-rule:nonzero;fill:rgb(29.411766%,30.980393%,32.156864%);fill-opacity:1;" d="M 28.015625 41.574219 C 27.90625 41.292969 27.761719 41.039062 27.753906 40.777344 C 27.71875 40.011719 27.75 39.246094 27.734375 38.476562 C 27.726562 38.054688 27.871094 37.722656 28.261719 37.574219 C 28.613281 37.441406 29.046875 37.433594 29.238281 37.777344 C 29.414062 38.089844 29.433594 38.507812 29.449219 38.882812 C 29.453125 38.941406 29.070312 39.019531 28.804688 39.109375 C 28.804688 38.777344 28.820312 38.578125 28.796875 38.386719 C 28.785156 38.316406 28.683594 38.257812 28.625 38.195312 C 28.5625 38.257812 28.449219 38.316406 28.445312 38.378906 C 28.433594 39.230469 28.433594 40.078125 28.445312 40.925781 C 28.445312 40.988281 28.5625 41.050781 28.625 41.113281 C 28.683594 41.046875 28.792969 40.980469 28.792969 40.917969 C 28.789062 40.699219 28.738281 40.480469 28.71875 40.261719 C 28.703125 40.097656 28.660156 39.816406 28.722656 39.789062 C 28.902344 39.710938 29.128906 39.695312 29.328125 39.726562 C 29.402344 39.738281 29.492188 39.941406 29.496094 40.0625 C 29.519531 40.503906 29.503906 40.945312 29.507812 41.386719 C 29.507812 41.640625 29.40625 41.742188 29.144531 41.671875 C 29.046875 41.648438 28.933594 41.679688 28.828125 41.671875 C 28.566406 41.652344 28.308594 41.625 28.015625 41.574219 Z M 28.015625 41.574219 "/>
<path style=" stroke:none;fill-rule:nonzero;fill:rgb(34.117648%,35.294119%,36.862746%);fill-opacity:1;" d="M 32.398438 35.414062 C 32.441406 35.511719 32.441406 35.597656 32.441406 35.714844 C 31.105469 35.753906 29.765625 35.78125 28.429688 35.757812 C 28.007812 35.75 27.722656 35.839844 27.546875 36.25 C 27.441406 36.484375 27.261719 36.691406 27.117188 36.910156 C 27.058594 36.898438 27 36.890625 26.941406 36.878906 C 26.742188 36.007812 26.539062 35.132812 26.335938 34.261719 C 26.3125 34.253906 26.289062 34.25 26.261719 34.242188 C 26.054688 35.277344 25.84375 36.3125 25.636719 37.347656 C 25.574219 37.355469 25.511719 37.363281 25.449219 37.371094 C 25.21875 36.839844 24.988281 36.308594 24.726562 35.761719 C 24.664062 35.660156 24.632812 35.570312 24.636719 35.445312 C 24.773438 35.398438 24.875 35.386719 24.976562 35.375 C 25.132812 35.515625 25.289062 35.652344 25.492188 35.832031 C 25.511719 35.566406 25.527344 35.390625 25.605469 35.1875 C 25.789062 34.707031 25.90625 34.257812 26.058594 33.816406 C 26.285156 34.007812 26.472656 34.183594 26.6875 34.386719 C 26.824219 34.765625 26.941406 35.117188 27.054688 35.472656 C 27.140625 35.554688 27.226562 35.632812 27.351562 35.683594 C 27.417969 35.632812 27.433594 35.609375 27.441406 35.574219 C 27.441406 35.574219 27.441406 35.574219 27.472656 35.558594 C 28.1875 35.460938 28.863281 35.335938 29.542969 35.308594 C 30.207031 35.28125 30.871094 35.355469 31.539062 35.382812 C 31.808594 35.390625 32.082031 35.394531 32.398438 35.414062 Z M 32.398438 35.414062 "/>
<path style=" stroke:none;fill-rule:nonzero;fill:rgb(19.607843%,47.450981%,69.01961%);fill-opacity:1;" d="M 23.972656 38.609375 C 23.988281 38.804688 24.003906 38.996094 24.019531 39.191406 C 24.058594 39.167969 24.097656 39.144531 24.136719 39.121094 C 24.265625 39.308594 24.464844 39.488281 24.492188 39.691406 C 24.507812 39.808594 24.25 39.960938 24.113281 40.097656 C 24.074219 40.078125 24.035156 40.054688 24 40.035156 C 24 40.457031 23.992188 40.875 24 41.296875 C 24.003906 41.566406 23.929688 41.738281 23.617188 41.730469 C 23.324219 41.722656 23.277344 41.542969 23.277344 41.304688 C 23.277344 40.164062 23.269531 39.019531 23.289062 37.878906 C 23.289062 37.761719 23.464844 37.550781 23.5625 37.546875 C 24.183594 37.53125 24.808594 37.558594 25.46875 37.640625 C 25.503906 37.914062 25.511719 38.121094 25.515625 38.328125 C 25.511719 38.460938 25.511719 38.589844 25.5 38.804688 C 25.496094 39.617188 25.503906 40.34375 25.511719 41.070312 C 25.511719 41.140625 25.507812 41.207031 25.496094 41.347656 C 25.480469 41.492188 25.472656 41.566406 25.46875 41.640625 C 24.898438 41.808594 24.800781 41.742188 24.800781 41.15625 C 24.800781 40.164062 24.800781 39.171875 24.800781 38.179688 C 24.542969 38.191406 24.316406 38.203125 24.03125 38.195312 C 24.140625 38.089844 24.3125 38.003906 24.484375 37.917969 C 24.167969 37.507812 23.792969 37.511719 23.589844 37.9375 C 23.507812 38.121094 23.433594 38.324219 23.429688 38.523438 C 23.414062 39.429688 23.421875 40.335938 23.433594 41.246094 C 23.4375 41.335938 23.535156 41.425781 23.589844 41.515625 C 23.664062 41.425781 23.796875 41.339844 23.804688 41.25 C 23.824219 40.773438 23.8125 40.296875 23.8125 39.8125 C 23.953125 39.789062 24.175781 39.75 24.3125 39.726562 C 24.035156 39.339844 23.796875 39.007812 23.492188 38.582031 C 23.753906 38.597656 23.863281 38.601562 23.972656 38.609375 Z M 23.972656 38.609375 "/>
<path style=" stroke:none;fill-rule:nonzero;fill:rgb(29.803923%,31.37255%,32.549021%);fill-opacity:1;" d="M 31.335938 37.617188 C 31.355469 37.691406 31.359375 37.730469 31.359375 37.796875 C 31.042969 38.988281 30.6875 40.140625 30.789062 41.375 C 30.796875 41.476562 30.597656 41.597656 30.496094 41.710938 C 30.375 41.597656 30.148438 41.472656 30.15625 41.367188 C 30.242188 40.1875 29.945312 39.074219 29.648438 37.953125 C 29.617188 37.835938 29.746094 37.679688 29.800781 37.539062 C 29.957031 37.636719 30.195312 37.707031 30.246094 37.84375 C 30.371094 38.167969 30.402344 38.527344 30.546875 38.863281 C 30.609375 38.558594 30.6875 38.257812 30.722656 37.953125 C 30.769531 37.5625 30.953125 37.441406 31.335938 37.617188 Z M 31.335938 37.617188 "/>
<path style=" stroke:none;fill-rule:nonzero;fill:rgb(27.843139%,27.843139%,28.627452%);fill-opacity:1;" d="M 37.0625 33.21875 C 37.074219 32.6875 37.257812 32.480469 37.753906 32.457031 C 37.976562 32.449219 38.199219 32.457031 38.46875 32.496094 C 38.519531 32.609375 38.527344 32.683594 38.535156 32.753906 C 38.644531 32.703125 38.730469 32.667969 38.8125 32.632812 C 39.320312 32.863281 39.113281 33.320312 39.152344 33.699219 C 39.191406 34.066406 38.859375 33.933594 38.691406 34.035156 C 38.300781 34.265625 37.929688 34.527344 37.554688 34.777344 C 37.410156 34.871094 37.265625 34.96875 37.046875 35.117188 C 37.046875 34.628906 37.046875 34.214844 37.078125 33.757812 C 37.132812 33.695312 37.15625 33.679688 37.179688 33.664062 C 37.140625 33.644531 37.101562 33.628906 37.0625 33.613281 C 37.058594 33.539062 37.054688 33.464844 37.082031 33.355469 C 37.136719 33.300781 37.160156 33.285156 37.183594 33.269531 C 37.144531 33.253906 37.105469 33.238281 37.0625 33.21875 M 38.210938 32.875 C 38.199219 32.851562 38.183594 32.824219 38.171875 32.800781 C 38.15625 32.828125 38.128906 32.859375 38.132812 32.875 C 38.140625 32.894531 38.179688 32.90625 38.210938 32.875 M 37.746094 33.023438 C 37.757812 33.066406 37.765625 33.105469 37.777344 33.148438 C 37.789062 33.136719 37.8125 33.128906 37.808594 33.121094 C 37.804688 33.078125 37.792969 33.039062 37.746094 33.023438 M 37.960938 32.878906 C 37.960938 32.878906 37.980469 32.886719 37.980469 32.886719 C 37.980469 32.886719 37.976562 32.867188 37.960938 32.878906 Z M 37.960938 32.878906 "/>
<path style=" stroke:none;fill-rule:nonzero;fill:rgb(16.862746%,47.058824%,69.411767%);fill-opacity:1;" d="M 25.574219 37.625 C 26.070312 37.59375 26.570312 37.554688 27.070312 37.546875 C 27.148438 37.546875 27.292969 37.707031 27.292969 37.792969 C 27.292969 37.933594 27.203125 38.191406 27.140625 38.191406 C 26.753906 38.214844 26.804688 38.472656 26.804688 38.714844 C 26.800781 39.527344 26.804688 40.34375 26.796875 41.160156 C 26.796875 41.410156 26.871094 41.714844 26.453125 41.71875 C 26.050781 41.71875 26.078125 41.445312 26.078125 41.175781 C 26.078125 40.328125 26.0625 39.480469 26.085938 38.632812 C 26.09375 38.300781 25.96875 38.191406 25.625 38.160156 C 25.578125 37.949219 25.574219 37.789062 25.574219 37.625 Z M 25.574219 37.625 "/>
<path style=" stroke:none;fill-rule:nonzero;fill:rgb(29.803923%,29.411766%,30.19608%);fill-opacity:1;" d="M 39.398438 35.191406 C 39.398438 34.984375 39.398438 34.824219 39.398438 34.601562 C 39.859375 34.601562 40.296875 34.578125 40.726562 34.609375 C 41.078125 34.632812 41.148438 34.804688 41.132812 35.199219 C 41.121094 35.46875 41.210938 35.742188 41.230469 36.015625 C 41.257812 36.410156 40.996094 36.582031 40.664062 36.613281 C 40.269531 36.648438 39.867188 36.621094 39.398438 36.621094 C 39.398438 36.140625 39.398438 35.691406 39.398438 35.191406 Z M 39.398438 35.191406 "/>
<path style=" stroke:none;fill-rule:nonzero;fill:rgb(29.019609%,28.627452%,29.411766%);fill-opacity:1;" d="M 13.9375 35.285156 C 13.933594 35.707031 13.933594 36.082031 13.929688 36.453125 C 13.929688 36.484375 13.914062 36.515625 13.890625 36.597656 C 13.464844 36.597656 13.019531 36.640625 12.589844 36.582031 C 12.296875 36.542969 12.035156 36.378906 12.097656 35.96875 C 12.148438 35.648438 12.070312 35.292969 12.167969 34.996094 C 12.226562 34.824219 12.503906 34.644531 12.707031 34.613281 C 13.082031 34.554688 13.476562 34.597656 13.9375 34.597656 C 13.9375 34.832031 13.9375 35.035156 13.9375 35.285156 Z M 13.9375 35.285156 "/>
<path style=" stroke:none;fill-rule:nonzero;fill:rgb(27.058825%,27.058825%,27.843139%);fill-opacity:1;" d="M 16.253906 32.933594 C 16.269531 32.972656 16.265625 32.96875 16.257812 33.007812 C 16.25 33.070312 16.246094 33.097656 16.207031 33.121094 C 16.109375 33.199219 16.046875 33.273438 16.019531 33.371094 C 16.089844 33.484375 16.160156 33.574219 16.164062 33.667969 C 16.175781 34.105469 16.171875 34.546875 16.171875 34.988281 C 15.765625 34.734375 15.363281 34.46875 14.953125 34.226562 C 14.792969 34.132812 14.609375 34.085938 14.4375 34.015625 C 14.378906 33.992188 14.3125 33.976562 14.269531 33.933594 C 14.054688 33.714844 14.230469 32.804688 14.574219 32.65625 C 14.953125 32.851562 15.273438 33.011719 15.59375 33.175781 C 15.621094 33.128906 15.648438 33.078125 15.671875 33.03125 C 15.492188 32.921875 15.304688 32.8125 15.125 32.695312 C 15.015625 32.628906 14.910156 32.546875 14.804688 32.472656 C 15.074219 32.46875 15.363281 32.402344 15.613281 32.472656 C 15.84375 32.539062 16.03125 32.746094 16.253906 32.933594 Z M 16.253906 32.933594 "/>
<path style=" stroke:none;fill-rule:nonzero;fill:rgb(10.588235%,45.882353%,72.941178%);fill-opacity:1;" d="M 23.980469 38.570312 C 23.863281 38.601562 23.753906 38.597656 23.492188 38.582031 C 23.796875 39.007812 24.035156 39.339844 24.3125 39.726562 C 24.175781 39.75 23.953125 39.789062 23.8125 39.8125 C 23.8125 40.296875 23.824219 40.773438 23.804688 41.25 C 23.796875 41.339844 23.664062 41.425781 23.589844 41.515625 C 23.535156 41.425781 23.4375 41.335938 23.433594 41.246094 C 23.421875 40.335938 23.414062 39.429688 23.429688 38.523438 C 23.433594 38.324219 23.507812 38.121094 23.589844 37.9375 C 23.792969 37.511719 24.167969 37.507812 24.484375 37.917969 C 24.3125 38.003906 24.140625 38.089844 23.992188 38.199219 C 24 38.324219 23.996094 38.429688 23.980469 38.570312 Z M 23.980469 38.570312 "/>
<path style=" stroke:none;fill-rule:nonzero;fill:rgb(29.019609%,28.627452%,29.411766%);fill-opacity:1;" d="M 17.46875 31.628906 C 17.132812 31.5 16.832031 31.382812 16.53125 31.269531 C 16.726562 30.832031 17.347656 30.664062 18.09375 30.851562 C 18.683594 31 18.53125 31.476562 18.539062 31.945312 C 18.175781 31.835938 17.839844 31.738281 17.46875 31.628906 Z M 17.46875 31.628906 "/>
<path style=" stroke:none;fill-rule:nonzero;fill:rgb(29.019609%,28.627452%,29.411766%);fill-opacity:1;" d="M 36.265625 31.460938 C 35.773438 31.632812 35.316406 31.792969 34.851562 31.960938 C 34.691406 31.035156 34.867188 30.820312 35.753906 30.835938 C 36.144531 30.839844 36.597656 30.710938 36.832031 31.25 C 36.65625 31.316406 36.480469 31.382812 36.265625 31.460938 Z M 36.265625 31.460938 "/>
<path style=" stroke:none;fill-rule:nonzero;fill:rgb(29.019609%,28.627452%,29.411766%);fill-opacity:1;" d="M 18.105469 32.269531 C 18.59375 32.355469 18.605469 32.652344 18.5 33.074219 C 17.867188 32.828125 17.226562 32.613281 16.617188 32.328125 C 16.488281 32.269531 16.480469 31.960938 16.371094 31.640625 C 17.039062 31.882812 17.554688 32.066406 18.105469 32.269531 Z M 18.105469 32.269531 "/>
<path style=" stroke:none;fill-rule:nonzero;fill:rgb(29.019609%,28.627452%,29.411766%);fill-opacity:1;" d="M 35.183594 32.941406 C 35.042969 32.984375 34.9375 33.011719 34.839844 33.039062 C 34.699219 32.609375 34.828125 32.382812 35.242188 32.261719 C 35.722656 32.117188 36.1875 31.921875 36.660156 31.75 C 36.703125 31.734375 36.757812 31.742188 36.804688 31.738281 C 36.964844 32.148438 36.816406 32.359375 36.402344 32.476562 C 35.996094 32.589844 35.613281 32.773438 35.183594 32.941406 Z M 35.183594 32.941406 "/>
<path style=" stroke:none;fill-rule:nonzero;fill:rgb(15.686275%,46.27451%,69.803923%);fill-opacity:1;" d="M 20.488281 41.558594 C 20.113281 41.613281 19.738281 41.6875 19.359375 41.699219 C 19.277344 41.703125 19.117188 41.492188 19.117188 41.375 C 19.097656 40.203125 19.101562 39.03125 19.109375 37.855469 C 19.113281 37.757812 19.164062 37.617188 19.238281 37.570312 C 19.566406 37.359375 20.496094 37.597656 20.78125 37.980469 C 20.785156 38.015625 20.777344 38.023438 20.734375 38.023438 C 20.636719 38 20.558594 37.992188 20.523438 37.949219 C 20.257812 37.609375 19.863281 37.558594 19.542969 37.703125 C 19.363281 37.785156 19.238281 38.160156 19.222656 38.414062 C 19.179688 39.148438 19.207031 39.886719 19.207031 40.625 C 19.207031 41.519531 19.207031 41.519531 20.136719 41.511719 C 20.25 41.507812 20.359375 41.53125 20.472656 41.542969 C 20.472656 41.542969 20.484375 41.554688 20.488281 41.558594 Z M 20.488281 41.558594 "/>
<path style=" stroke:none;fill-rule:nonzero;fill:rgb(23.137255%,44.313726%,60.392159%);fill-opacity:1;" d="M 31.550781 35.347656 C 30.871094 35.355469 30.207031 35.28125 29.542969 35.308594 C 28.863281 35.335938 28.1875 35.460938 27.472656 35.558594 C 27.515625 34.910156 28.042969 35.179688 28.375 35.167969 C 29.378906 35.128906 30.382812 35.152344 31.425781 35.152344 C 31.4375 34.976562 31.449219 34.816406 31.460938 34.617188 C 31.496094 34.820312 31.527344 35.066406 31.550781 35.347656 Z M 31.550781 35.347656 "/>
<path style=" stroke:none;fill-rule:nonzero;fill:rgb(93.333334%,93.333334%,94.117647%);fill-opacity:1;" d="M 16.171875 35.023438 C 16.171875 34.546875 16.175781 34.105469 16.164062 33.667969 C 16.160156 33.574219 16.089844 33.484375 16.054688 33.367188 C 16.121094 33.269531 16.179688 33.195312 16.242188 33.121094 C 16.246094 33.097656 16.25 33.070312 16.257812 33.011719 C 16.332031 33.066406 16.457031 33.160156 16.457031 33.253906 C 16.476562 33.867188 16.464844 34.480469 16.457031 35.136719 C 16.355469 35.140625 16.265625 35.097656 16.171875 35.023438 Z M 16.171875 35.023438 "/>
<path style=" stroke:none;fill-rule:nonzero;fill:rgb(93.333334%,93.333334%,94.117647%);fill-opacity:1;" d="M 16.320312 38.417969 C 16.273438 37.566406 16.265625 36.710938 16.269531 35.8125 C 16.328125 35.785156 16.382812 35.804688 16.449219 35.84375 C 16.464844 36.695312 16.464844 37.519531 16.457031 38.382812 C 16.417969 38.421875 16.390625 38.421875 16.320312 38.417969 Z M 16.320312 38.417969 "/>
<path style=" stroke:none;fill-rule:nonzero;fill:rgb(88.627452%,88.627452%,89.411765%);fill-opacity:1;" d="M 12.445312 15.035156 C 11.824219 15.105469 10.886719 14.832031 10.402344 14.414062 C 11.144531 14.59375 11.753906 14.746094 12.410156 14.902344 C 12.449219 14.9375 12.449219 14.964844 12.445312 15.035156 Z M 12.445312 15.035156 "/>
<path style=" stroke:none;fill-rule:nonzero;fill:rgb(88.627452%,88.627452%,89.411765%);fill-opacity:1;" d="M 24.960938 35.335938 C 24.875 35.386719 24.773438 35.398438 24.632812 35.417969 C 23.449219 35.421875 22.304688 35.414062 21.117188 35.394531 C 21.070312 35.363281 21.070312 35.347656 21.074219 35.296875 C 22.363281 35.28125 23.65625 35.289062 24.960938 35.335938 Z M 24.960938 35.335938 "/>
<path style=" stroke:none;fill-rule:nonzero;fill:rgb(26.274511%,26.274511%,27.058825%);fill-opacity:1;" d="M 26.664062 34.363281 C 26.472656 34.183594 26.285156 34.007812 26.066406 33.777344 C 26.039062 33.628906 26.042969 33.527344 26.070312 33.421875 C 26.121094 33.320312 26.144531 33.222656 26.164062 33.125 C 26.164062 33.125 26.1875 33.089844 26.199219 33.070312 C 26.277344 33.042969 26.34375 33.03125 26.4375 33.019531 C 26.460938 33.03125 26.460938 33.046875 26.4375 33.109375 C 26.429688 33.242188 26.449219 33.332031 26.472656 33.460938 C 26.539062 33.785156 26.601562 34.074219 26.664062 34.363281 Z M 26.664062 34.363281 "/>
<path style=" stroke:none;fill-rule:nonzero;fill:rgb(77.64706%,87.843138%,92.941177%);fill-opacity:1;" d="M 36.363281 22.738281 C 36.75 23.152344 36.898438 23.664062 36.886719 24.328125 C 36.648438 23.800781 36.453125 23.363281 36.246094 22.886719 C 36.273438 22.824219 36.308594 22.796875 36.363281 22.738281 Z M 36.363281 22.738281 "/>
<path style=" stroke:none;fill-rule:nonzero;fill:rgb(33.333334%,32.941177%,33.725491%);fill-opacity:1;" d="M 14.777344 32.464844 C 14.910156 32.546875 15.015625 32.628906 15.125 32.695312 C 15.304688 32.8125 15.492188 32.921875 15.671875 33.03125 C 15.648438 33.078125 15.621094 33.128906 15.59375 33.175781 C 15.273438 33.011719 14.953125 32.851562 14.613281 32.65625 C 14.648438 32.566406 14.703125 32.511719 14.777344 32.464844 Z M 14.777344 32.464844 "/>
<path style=" stroke:none;fill-rule:nonzero;fill:rgb(64.705884%,79.607844%,91.764706%);fill-opacity:1;" d="M 20.9375 38.210938 C 20.953125 39.097656 20.953125 39.988281 20.953125 40.875 C 20.925781 40.875 20.902344 40.875 20.875 40.878906 C 20.875 40.019531 20.875 39.160156 20.882812 38.257812 C 20.886719 38.210938 20.921875 38.210938 20.9375 38.210938 Z M 20.9375 38.210938 "/>
<path style=" stroke:none;fill-rule:nonzero;fill:rgb(64.705884%,79.607844%,91.764706%);fill-opacity:1;" d="M 25.53125 41.035156 C 25.503906 40.34375 25.496094 39.617188 25.5 38.84375 C 25.527344 39.53125 25.539062 40.265625 25.53125 41.035156 Z M 25.53125 41.035156 "/>
<path style=" stroke:none;fill-rule:nonzero;fill:rgb(29.019609%,28.627452%,29.411766%);fill-opacity:1;" d="M 14.9375 38.992188 C 14.941406 38.867188 14.988281 38.746094 15.03125 38.625 C 15.148438 38.71875 15.261719 38.816406 15.382812 38.945312 C 15.25 38.984375 15.113281 38.992188 14.9375 38.992188 Z M 14.9375 38.992188 "/>
<path style=" stroke:none;fill-rule:nonzero;fill:rgb(30.980393%,30.588236%,31.37255%);fill-opacity:1;" d="M 39.132812 37.609375 C 38.988281 37.699219 38.851562 37.761719 38.714844 37.820312 C 38.683594 37.777344 38.652344 37.734375 38.621094 37.691406 C 38.734375 37.605469 38.84375 37.519531 38.988281 37.4375 C 39.0625 37.488281 39.101562 37.53125 39.132812 37.609375 Z M 39.132812 37.609375 "/>
<path style=" stroke:none;fill-rule:nonzero;fill:rgb(30.980393%,30.588236%,31.37255%);fill-opacity:1;" d="M 37.964844 38.988281 C 37.980469 38.886719 38.019531 38.773438 38.097656 38.707031 C 38.152344 38.65625 38.265625 38.667969 38.351562 38.652344 C 38.34375 38.742188 38.335938 38.828125 38.324219 38.953125 C 38.214844 38.988281 38.109375 38.992188 37.964844 38.988281 Z M 37.964844 38.988281 "/>
<path style=" stroke:none;fill-rule:nonzero;fill:rgb(30.980393%,30.588236%,31.37255%);fill-opacity:1;" d="M 38.839844 38.90625 C 38.878906 38.8125 38.945312 38.714844 39.050781 38.613281 C 39.015625 38.710938 38.945312 38.808594 38.839844 38.90625 Z M 38.839844 38.90625 "/>
<path style=" stroke:none;fill-rule:nonzero;fill:rgb(33.333334%,32.941177%,33.725491%);fill-opacity:1;" d="M 38.800781 32.601562 C 38.730469 32.667969 38.644531 32.703125 38.535156 32.753906 C 38.527344 32.683594 38.519531 32.609375 38.511719 32.503906 C 38.601562 32.507812 38.695312 32.539062 38.800781 32.601562 Z M 38.800781 32.601562 "/>
<path style=" stroke:none;fill-rule:nonzero;fill:rgb(64.705884%,79.607844%,91.764706%);fill-opacity:1;" d="M 25.554688 37.621094 C 25.574219 37.789062 25.578125 37.949219 25.582031 38.152344 C 25.574219 38.226562 25.5625 38.261719 25.535156 38.3125 C 25.511719 38.121094 25.503906 37.914062 25.5 37.664062 C 25.496094 37.617188 25.535156 37.617188 25.554688 37.621094 Z M 25.554688 37.621094 "/>
<path style=" stroke:none;fill-rule:nonzero;fill:rgb(27.843139%,27.843139%,28.627452%);fill-opacity:1;" d="M 34.804688 38.160156 C 34.839844 38.214844 34.867188 38.308594 34.867188 38.410156 C 34.824219 38.34375 34.8125 38.269531 34.804688 38.160156 Z M 34.804688 38.160156 "/>
<path style=" stroke:none;fill-rule:nonzero;fill:rgb(27.843139%,27.843139%,28.627452%);fill-opacity:1;" d="M 34.800781 39.625 C 34.855469 39.625 34.902344 39.65625 34.949219 39.6875 C 34.921875 39.71875 34.890625 39.75 34.835938 39.785156 C 34.804688 39.746094 34.800781 39.699219 34.800781 39.625 Z M 34.800781 39.625 "/>
<path style=" stroke:none;fill-rule:nonzero;fill:rgb(29.019609%,28.627452%,29.411766%);fill-opacity:1;" d="M 14.523438 38.921875 C 14.566406 38.910156 14.628906 38.917969 14.695312 38.953125 C 14.648438 38.96875 14.597656 38.953125 14.523438 38.921875 Z M 14.523438 38.921875 "/>
<path style=" stroke:none;fill-rule:nonzero;fill:rgb(64.705884%,79.607844%,91.764706%);fill-opacity:1;" d="M 25.492188 41.625 C 25.472656 41.566406 25.480469 41.492188 25.5 41.382812 C 25.515625 41.433594 25.515625 41.523438 25.492188 41.625 Z M 25.492188 41.625 "/>
<path style=" stroke:none;fill-rule:nonzero;fill:rgb(33.333334%,32.941177%,33.725491%);fill-opacity:1;" d="M 37.058594 33.246094 C 37.105469 33.238281 37.144531 33.253906 37.183594 33.269531 C 37.160156 33.285156 37.136719 33.300781 37.089844 33.320312 C 37.0625 33.304688 37.058594 33.289062 37.058594 33.246094 Z M 37.058594 33.246094 "/>
<path style=" stroke:none;fill-rule:nonzero;fill:rgb(33.333334%,32.941177%,33.725491%);fill-opacity:1;" d="M 37.054688 33.636719 C 37.101562 33.628906 37.140625 33.644531 37.179688 33.664062 C 37.15625 33.679688 37.132812 33.695312 37.085938 33.710938 C 37.058594 33.695312 37.050781 33.679688 37.054688 33.636719 Z M 37.054688 33.636719 "/>
<path style=" stroke:none;fill-rule:nonzero;fill:rgb(80.784315%,80.392158%,81.960785%);fill-opacity:1;" d="M 26.042969 33.425781 C 26.042969 33.527344 26.039062 33.628906 26.03125 33.765625 C 25.90625 34.257812 25.789062 34.707031 25.636719 35.167969 C 25.703125 34.601562 25.804688 34.03125 25.957031 33.445312 C 26.003906 33.429688 26.042969 33.425781 26.042969 33.425781 Z M 26.042969 33.425781 "/>
<path style=" stroke:none;fill-rule:nonzero;fill:rgb(34.117648%,35.294119%,36.862746%);fill-opacity:1;" d="M 26.070312 33.421875 C 26.042969 33.425781 26.003906 33.429688 25.988281 33.421875 C 26.011719 33.320312 26.050781 33.222656 26.128906 33.125 C 26.144531 33.222656 26.121094 33.320312 26.070312 33.421875 Z M 26.070312 33.421875 "/>
<path style=" stroke:none;fill-rule:nonzero;fill:rgb(77.64706%,87.843138%,92.941177%);fill-opacity:1;" d="M 26.6875 34.386719 C 26.601562 34.074219 26.539062 33.785156 26.496094 33.457031 C 26.535156 33.410156 26.550781 33.40625 26.566406 33.402344 C 26.734375 34.066406 26.898438 34.726562 27.058594 35.429688 C 26.941406 35.117188 26.824219 34.765625 26.6875 34.386719 Z M 26.6875 34.386719 "/>
<path style=" stroke:none;fill-rule:nonzero;fill:rgb(34.117648%,35.294119%,36.862746%);fill-opacity:1;" d="M 26.566406 33.371094 C 26.550781 33.40625 26.535156 33.410156 26.492188 33.417969 C 26.449219 33.332031 26.429688 33.242188 26.4375 33.132812 C 26.496094 33.1875 26.53125 33.261719 26.566406 33.371094 Z M 26.566406 33.371094 "/>
<path style=" stroke:none;fill-rule:nonzero;fill:rgb(23.137255%,44.313726%,60.392159%);fill-opacity:1;" d="M 27.417969 35.585938 C 27.433594 35.609375 27.417969 35.632812 27.367188 35.664062 C 27.351562 35.640625 27.371094 35.613281 27.417969 35.585938 Z M 27.417969 35.585938 "/>
<path style=" stroke:none;fill-rule:nonzero;fill:rgb(30.980393%,30.588236%,31.37255%);fill-opacity:1;" d="M 37.546875 38.6875 C 37.507812 38.617188 37.5 38.550781 37.488281 38.488281 C 37.546875 38.507812 37.601562 38.527344 37.65625 38.546875 C 37.628906 38.597656 37.601562 38.644531 37.546875 38.6875 Z M 37.546875 38.6875 "/>
<path style=" stroke:none;fill-rule:nonzero;fill:rgb(30.980393%,30.588236%,31.37255%);fill-opacity:1;" d="M 37.941406 38.195312 C 37.964844 38.28125 37.957031 38.371094 37.953125 38.460938 C 37.914062 38.453125 37.878906 38.445312 37.84375 38.433594 C 37.867188 38.359375 37.890625 38.28125 37.941406 38.195312 Z M 37.941406 38.195312 "/>
<path style=" stroke:none;fill-rule:nonzero;fill:rgb(30.980393%,30.588236%,31.37255%);fill-opacity:1;" d="M 38.453125 37.972656 C 38.410156 37.960938 38.382812 37.933594 38.355469 37.902344 C 38.355469 37.902344 38.378906 37.882812 38.390625 37.871094 C 38.417969 37.898438 38.445312 37.925781 38.453125 37.972656 Z M 38.453125 37.972656 "/>
<path style=" stroke:none;fill-rule:nonzero;fill:rgb(30.980393%,30.588236%,31.37255%);fill-opacity:1;" d="M 38.695312 37.125 C 38.726562 37.136719 38.742188 37.164062 38.757812 37.1875 C 38.734375 37.171875 38.707031 37.15625 38.695312 37.125 Z M 38.695312 37.125 "/>
<path style=" stroke:none;fill-rule:nonzero;fill:rgb(29.019609%,28.627452%,29.411766%);fill-opacity:1;" d="M 14.957031 38.035156 C 14.890625 37.980469 14.84375 37.90625 14.792969 37.832031 C 14.828125 37.816406 14.859375 37.800781 14.890625 37.785156 C 14.917969 37.859375 14.949219 37.9375 14.957031 38.035156 Z M 14.957031 38.035156 "/>
<path style=" stroke:none;fill-rule:nonzero;fill:rgb(29.019609%,28.627452%,29.411766%);fill-opacity:1;" d="M 15.328125 38.3125 C 15.367188 38.289062 15.402344 38.289062 15.441406 38.292969 C 15.445312 38.292969 15.441406 38.324219 15.441406 38.339844 C 15.402344 38.339844 15.363281 38.339844 15.328125 38.3125 Z M 15.328125 38.3125 "/>
<path style=" stroke:none;fill-rule:nonzero;fill:rgb(29.019609%,28.627452%,29.411766%);fill-opacity:1;" d="M 14.480469 37.628906 C 14.464844 37.640625 14.449219 37.636719 14.429688 37.632812 C 14.445312 37.625 14.464844 37.621094 14.480469 37.628906 Z M 14.480469 37.628906 "/>
<path style=" stroke:none;fill-rule:nonzero;fill:rgb(14.509805%,46.27451%,70.19608%);fill-opacity:1;" d="M 20.480469 41.507812 C 20.359375 41.53125 20.25 41.507812 20.136719 41.511719 C 19.207031 41.519531 19.207031 41.519531 19.207031 40.625 C 19.207031 39.886719 19.179688 39.148438 19.222656 38.414062 C 19.238281 38.160156 19.363281 37.785156 19.542969 37.703125 C 19.863281 37.558594 20.257812 37.609375 20.523438 37.949219 C 20.558594 37.992188 20.636719 38 20.730469 38.03125 C 20.769531 38.894531 20.796875 39.753906 20.761719 40.609375 C 20.75 40.902344 20.582031 41.183594 20.480469 41.507812 M 20.136719 40.910156 C 20.152344 40.121094 20.175781 39.328125 20.183594 38.539062 C 20.1875 38.265625 20.039062 38.199219 19.738281 38.375 C 19.757812 39.203125 19.773438 40.03125 19.816406 40.910156 C 19.84375 40.9375 19.871094 40.96875 19.894531 41.050781 C 19.917969 41.097656 19.941406 41.144531 19.964844 41.191406 C 20.003906 41.121094 20.046875 41.050781 20.136719 40.910156 Z M 20.136719 40.910156 "/>
<path style=" stroke:none;fill-rule:nonzero;fill:rgb(99.607843%,99.607843%,99.607843%);fill-opacity:1;" d="M 22.023438 38.710938 C 22.023438 39.398438 22.027344 40.085938 22.007812 40.832031 C 21.964844 40.917969 21.960938 40.945312 21.96875 40.976562 C 21.96875 40.976562 21.964844 40.976562 21.925781 40.972656 C 21.832031 40.976562 21.785156 40.988281 21.734375 40.996094 C 21.734375 40.996094 21.726562 40.988281 21.738281 40.945312 C 21.75 40.171875 21.742188 39.445312 21.765625 38.71875 C 21.769531 38.578125 21.898438 38.4375 21.96875 38.296875 C 21.96875 38.296875 21.976562 38.300781 21.96875 38.335938 C 21.980469 38.484375 22 38.597656 22.023438 38.710938 Z M 22.023438 38.710938 "/>
<path style=" stroke:none;fill-rule:nonzero;fill:rgb(88.627452%,94.901961%,98.431373%);fill-opacity:1;" d="M 21.953125 38.269531 C 21.898438 38.4375 21.769531 38.578125 21.765625 38.71875 C 21.742188 39.445312 21.75 40.171875 21.734375 40.949219 C 21.726562 40.996094 21.6875 40.988281 21.671875 40.929688 C 21.652344 40.253906 21.648438 39.632812 21.640625 39.007812 C 21.644531 38.933594 21.652344 38.855469 21.65625 38.703125 C 21.660156 38.492188 21.667969 38.359375 21.675781 38.230469 C 21.761719 38.230469 21.851562 38.234375 21.953125 38.269531 Z M 21.953125 38.269531 "/>
<path style=" stroke:none;fill-rule:nonzero;fill:rgb(23.137255%,44.313726%,60.392159%);fill-opacity:1;" d="M 21.617188 39.039062 C 21.648438 39.632812 21.652344 40.253906 21.65625 40.921875 C 21.613281 40.945312 21.539062 40.921875 21.539062 40.902344 C 21.550781 40.292969 21.570312 39.683594 21.617188 39.039062 Z M 21.617188 39.039062 "/>
<path style=" stroke:none;fill-rule:nonzero;fill:rgb(23.137255%,44.313726%,60.392159%);fill-opacity:1;" d="M 21.644531 38.246094 C 21.667969 38.359375 21.660156 38.492188 21.648438 38.664062 C 21.632812 38.558594 21.625 38.410156 21.644531 38.246094 Z M 21.644531 38.246094 "/>
<path style=" stroke:none;fill-rule:nonzero;fill:rgb(77.64706%,87.843138%,92.941177%);fill-opacity:1;" d="M 22.03125 38.675781 C 22 38.597656 21.980469 38.484375 21.972656 38.335938 C 22 38.414062 22.023438 38.527344 22.03125 38.675781 Z M 22.03125 38.675781 "/>
<path style=" stroke:none;fill-rule:nonzero;fill:rgb(88.627452%,94.901961%,98.431373%);fill-opacity:1;" d="M 21.75 41.019531 C 21.785156 40.988281 21.832031 40.976562 21.921875 40.972656 C 21.898438 40.996094 21.832031 41.019531 21.75 41.019531 Z M 21.75 41.019531 "/>
<path style=" stroke:none;fill-rule:nonzero;fill:rgb(77.64706%,87.843138%,92.941177%);fill-opacity:1;" d="M 21.992188 40.964844 C 21.960938 40.945312 21.964844 40.917969 22 40.878906 C 22.039062 40.894531 22.035156 40.925781 21.992188 40.964844 Z M 21.992188 40.964844 "/>
<path style=" stroke:none;fill-rule:nonzero;fill:rgb(33.333334%,32.941177%,33.725491%);fill-opacity:1;" d="M 38.210938 32.898438 C 38.179688 32.90625 38.140625 32.894531 38.132812 32.875 C 38.128906 32.859375 38.15625 32.828125 38.171875 32.800781 C 38.183594 32.824219 38.199219 32.851562 38.210938 32.898438 Z M 38.210938 32.898438 "/>
<path style=" stroke:none;fill-rule:nonzero;fill:rgb(33.333334%,32.941177%,33.725491%);fill-opacity:1;" d="M 37.765625 33.011719 C 37.792969 33.039062 37.804688 33.078125 37.808594 33.121094 C 37.8125 33.128906 37.789062 33.136719 37.777344 33.148438 C 37.765625 33.105469 37.757812 33.066406 37.765625 33.011719 Z M 37.765625 33.011719 "/>
<path style=" stroke:none;fill-rule:nonzero;fill:rgb(33.333334%,32.941177%,33.725491%);fill-opacity:1;" d="M 37.96875 32.871094 C 37.976562 32.867188 37.980469 32.886719 37.980469 32.886719 C 37.980469 32.886719 37.960938 32.878906 37.96875 32.871094 Z M 37.96875 32.871094 "/>
<path style=" stroke:none;fill-rule:nonzero;fill:rgb(33.333334%,32.941177%,33.725491%);fill-opacity:1;" d="M 16.207031 33.121094 C 16.179688 33.195312 16.121094 33.269531 16.023438 33.34375 C 16.046875 33.273438 16.109375 33.199219 16.207031 33.121094 Z M 16.207031 33.121094 "/>
<path style=" stroke:none;fill-rule:nonzero;fill:rgb(88.627452%,94.901961%,98.431373%);fill-opacity:1;" d="M 19.894531 40.996094 C 19.871094 40.96875 19.84375 40.9375 19.808594 40.839844 C 19.800781 39.953125 19.800781 39.136719 19.800781 38.320312 C 20.039062 38.199219 20.1875 38.265625 20.183594 38.539062 C 20.175781 39.328125 20.152344 40.121094 20.078125 40.945312 C 19.980469 40.984375 19.9375 40.988281 19.894531 40.996094 Z M 19.894531 40.996094 "/>
<path style=" stroke:none;fill-rule:nonzero;fill:rgb(23.137255%,44.313726%,60.392159%);fill-opacity:1;" d="M 19.769531 38.347656 C 19.800781 39.136719 19.800781 39.953125 19.796875 40.816406 C 19.773438 40.03125 19.757812 39.203125 19.769531 38.347656 Z M 19.769531 38.347656 "/>
<path style=" stroke:none;fill-rule:nonzero;fill:rgb(23.137255%,44.313726%,60.392159%);fill-opacity:1;" d="M 19.894531 41.023438 C 19.9375 40.988281 19.980469 40.984375 20.054688 40.980469 C 20.046875 41.050781 20.003906 41.121094 19.964844 41.191406 C 19.941406 41.144531 19.917969 41.097656 19.894531 41.023438 Z M 19.894531 41.023438 "/>
</g>
</svg>
