<?xml version="1.0" encoding="UTF-8"?>
<svg xmlns="http://www.w3.org/2000/svg" xmlns:xlink="http://www.w3.org/1999/xlink" width="49px" height="49px" viewBox="0 0 49 49" version="1.1">
<g id="surface1">
<path style="fill:none;stroke-width:2;stroke-linecap:butt;stroke-linejoin:miter;stroke:rgb(23.529412%,23.529412%,23.529412%);stroke-opacity:1;stroke-miterlimit:4;" d="M 33.000239 16.498326 L 34.998406 16.498326 C 35.550861 16.498326 35.999283 16.946747 35.999283 17.499203 L 35.999283 27.500797 C 35.999283 28.053253 35.550861 28.501674 34.998406 28.501674 L 33.000239 28.501674 C 32.447784 28.501674 31.999362 28.053253 31.999362 27.500797 L 31.999362 17.499203 C 31.999362 16.946747 32.447784 16.498326 33.000239 16.498326 Z M 33.000239 16.498326 " transform="matrix(1.088889,0,0,1.088889,0,0)"/>
<path style="fill:none;stroke-width:2;stroke-linecap:butt;stroke-linejoin:miter;stroke:rgb(23.529412%,23.529412%,23.529412%);stroke-opacity:1;stroke-miterlimit:4;" d="M 29.000319 12.498406 L 30.998485 12.498406 C 31.550941 12.498406 31.999362 12.946827 31.999362 13.499283 L 31.999362 31.500717 C 31.999362 32.053173 31.550941 32.501594 30.998485 32.501594 L 29.000319 32.501594 C 28.447864 32.501594 27.999442 32.053173 27.999442 31.500717 L 27.999442 13.499283 C 27.999442 12.946827 28.447864 12.498406 29.000319 12.498406 Z M 29.000319 12.498406 " transform="matrix(1.088889,0,0,1.088889,0,0)"/>
<path style="fill:none;stroke-width:2;stroke-linecap:butt;stroke-linejoin:miter;stroke:rgb(23.529412%,23.529412%,23.529412%);stroke-opacity:1;stroke-miterlimit:4;" d="M 14.998804 12.498406 L 17.000558 12.498406 C 17.553013 12.498406 18.001435 12.946827 18.001435 13.499283 L 18.001435 31.500717 C 18.001435 32.053173 17.553013 32.501594 17.000558 32.501594 L 14.998804 32.501594 C 14.446349 32.501594 14.001515 32.053173 14.001515 31.500717 L 14.001515 13.499283 C 14.001515 12.946827 14.446349 12.498406 14.998804 12.498406 Z M 14.998804 12.498406 " transform="matrix(1.088889,0,0,1.088889,0,0)"/>
<path style="fill:none;stroke-width:2;stroke-linecap:butt;stroke-linejoin:miter;stroke:rgb(23.529412%,23.529412%,23.529412%);stroke-opacity:1;stroke-miterlimit:4;" d="M 10.998884 16.498326 L 13.000638 16.498326 C 13.553093 16.498326 14.001515 16.946747 14.001515 17.499203 L 14.001515 27.500797 C 14.001515 28.053253 13.553093 28.501674 13.000638 28.501674 L 10.998884 28.501674 C 10.446429 28.501674 10.001594 28.053253 10.001594 27.500797 L 10.001594 17.499203 C 10.001594 16.946747 10.446429 16.498326 10.998884 16.498326 Z M 10.998884 16.498326 " transform="matrix(1.088889,0,0,1.088889,0,0)"/>
<path style="fill:none;stroke-width:2;stroke-linecap:butt;stroke-linejoin:miter;stroke:rgb(23.529412%,23.529412%,23.529412%);stroke-opacity:1;stroke-miterlimit:4;" d="M 35.999283 22.5 L 38.998326 22.5 " transform="matrix(1.088889,0,0,1.088889,0,0)"/>
<path style="fill:none;stroke-width:2;stroke-linecap:butt;stroke-linejoin:miter;stroke:rgb(23.529412%,23.529412%,23.529412%);stroke-opacity:1;stroke-miterlimit:4;" d="M 18.001435 22.5 L 27.999442 22.5 " transform="matrix(1.088889,0,0,1.088889,0,0)"/>
<path style="fill:none;stroke-width:2;stroke-linecap:butt;stroke-linejoin:miter;stroke:rgb(23.529412%,23.529412%,23.529412%);stroke-opacity:1;stroke-miterlimit:4;" d="M 6.998964 22.5 L 10.001594 22.5 " transform="matrix(1.088889,0,0,1.088889,0,0)"/>
</g>
</svg>
