<svg xmlns="http://www.w3.org/2000/svg" xmlns:xlink="http://www.w3.org/1999/xlink" width="800" zoomAndPan="magnify" viewBox="0 0 600 599.999999" height="800" preserveAspectRatio="xMidYMid meet" version="1.2"><defs><clipPath id="fb213eb7ed"><path d="M 144.679688 142.785156 L 178 142.785156 L 178 163 L 144.679688 163 Z M 144.679688 142.785156 "/></clipPath><clipPath id="89b7482c83"><path d="M 171 166 L 193 166 L 193 185.535156 L 171 185.535156 Z M 171 166 "/></clipPath><clipPath id="4913d7c428"><path d="M 171 173 L 197 173 L 197 185.535156 L 171 185.535156 Z M 171 173 "/></clipPath><clipPath id="35dd7ec553"><path d="M 401.207031 86.410156 L 438 86.410156 L 438 113 L 401.207031 113 Z M 401.207031 86.410156 "/></clipPath><clipPath id="a212aced28"><path d="M 425 99 L 438.707031 99 L 438.707031 120.910156 L 425 120.910156 Z M 425 99 "/></clipPath><clipPath id="91900bcdf0"><path d="M 126.835938 98.625 L 171.085938 98.625 L 171.085938 142.875 L 126.835938 142.875 Z M 126.835938 98.625 "/></clipPath><clipPath id="be8442b18a"><path d="M 18 5.859375 L 505 5.859375 L 505 222 L 18 222 Z M 18 5.859375 "/></clipPath></defs><g id="ddf6891e14"><g clip-rule="nonzero" clip-path="url(#fb213eb7ed)"><path style=" stroke:none;fill-rule:evenodd;fill:#737ce9;fill-opacity:1;" d="M 157.601562 146.863281 C 157.945312 146.25 158.363281 145.691406 158.859375 145.191406 C 159.351562 144.6875 159.902344 144.257812 160.507812 143.902344 C 161.117188 143.546875 161.757812 143.277344 162.4375 143.09375 C 163.117188 142.910156 163.808594 142.816406 164.511719 142.816406 L 164.515625 142.816406 C 165.074219 142.816406 165.625 142.875 166.167969 142.992188 C 166.710938 143.109375 167.238281 143.28125 167.746094 143.507812 C 168.253906 143.734375 168.734375 144.011719 169.183594 144.339844 C 169.636719 144.667969 170.046875 145.039062 170.417969 145.453125 C 170.789062 145.867188 171.113281 146.316406 171.390625 146.796875 C 171.671875 147.28125 171.894531 147.785156 172.066406 148.316406 C 172.238281 148.847656 172.351562 149.390625 172.410156 149.941406 C 172.464844 150.496094 172.464844 151.050781 172.40625 151.605469 C 172.742188 151.640625 173.070312 151.707031 173.394531 151.804688 C 173.714844 151.902344 174.027344 152.03125 174.324219 152.1875 C 174.621094 152.34375 174.902344 152.527344 175.167969 152.738281 C 175.429688 152.949219 175.671875 153.183594 175.890625 153.4375 C 176.109375 153.695312 176.300781 153.96875 176.46875 154.261719 C 176.636719 154.554688 176.773438 154.863281 176.882812 155.183594 C 176.992188 155.5 177.066406 155.828125 177.113281 156.164062 C 177.160156 156.496094 177.175781 156.832031 177.15625 157.167969 C 177.140625 157.507812 177.089844 157.839844 177.007812 158.167969 C 176.929688 158.492188 176.816406 158.8125 176.675781 159.117188 C 176.535156 159.421875 176.367188 159.714844 176.171875 159.988281 C 175.972656 160.261719 175.753906 160.515625 175.507812 160.746094 C 175.265625 160.980469 175 161.1875 174.714844 161.367188 C 174.433594 161.550781 174.132812 161.703125 173.820312 161.828125 C 173.507812 161.953125 173.183594 162.046875 172.855469 162.113281 C 172.523438 162.175781 172.1875 162.207031 171.851562 162.207031 L 150.242188 162.207031 C 149.585938 162.207031 148.953125 162.089844 148.339844 161.855469 C 147.726562 161.621094 147.179688 161.28125 146.691406 160.84375 C 146.203125 160.402344 145.8125 159.890625 145.511719 159.308594 C 145.214844 158.722656 145.03125 158.105469 144.960938 157.453125 C 144.894531 156.800781 144.941406 156.15625 145.113281 155.523438 C 145.28125 154.886719 145.558594 154.304688 145.941406 153.773438 C 146.328125 153.242188 146.792969 152.796875 147.34375 152.4375 C 147.890625 152.078125 148.488281 151.832031 149.128906 151.695312 C 149.179688 151.21875 149.285156 150.757812 149.441406 150.308594 C 149.601562 149.859375 149.8125 149.4375 150.074219 149.039062 C 150.335938 148.636719 150.640625 148.277344 150.984375 147.949219 C 151.332031 147.621094 151.714844 147.339844 152.128906 147.105469 C 152.539062 146.867188 152.976562 146.683594 153.433594 146.550781 C 153.890625 146.421875 154.359375 146.34375 154.835938 146.324219 C 155.308594 146.300781 155.78125 146.335938 156.25 146.429688 C 156.71875 146.519531 157.167969 146.664062 157.601562 146.863281 Z M 157.601562 146.863281 "/></g><g clip-rule="nonzero" clip-path="url(#89b7482c83)"><path style=" stroke:none;fill-rule:evenodd;fill:#4e57bd;fill-opacity:1;" d="M 192.152344 170.125 L 182.175781 170.125 L 179.738281 166.097656 L 172.835938 166.097656 C 172.683594 166.097656 172.535156 166.128906 172.394531 166.1875 C 172.253906 166.246094 172.128906 166.328125 172.019531 166.4375 C 171.914062 166.542969 171.828125 166.667969 171.769531 166.8125 C 171.710938 166.953125 171.683594 167.097656 171.683594 167.253906 L 171.683594 185.511719 L 193 185.511719 L 193 170.976562 C 193 170.742188 192.917969 170.542969 192.75 170.375 C 192.585938 170.207031 192.386719 170.125 192.152344 170.125 Z M 192.152344 170.125 "/></g><path style=" stroke:none;fill-rule:nonzero;fill:#a3abff;fill-opacity:1;" d="M 180.191406 155.007812 C 180.003906 154.9375 179.863281 154.816406 179.777344 154.636719 C 179.691406 154.453125 179.679688 154.269531 179.746094 154.082031 C 179.8125 153.890625 179.933594 153.753906 180.113281 153.664062 C 180.292969 153.578125 180.476562 153.5625 180.667969 153.628906 C 181.769531 154.007812 182.816406 154.511719 183.796875 155.140625 C 184.78125 155.769531 185.675781 156.507812 186.484375 157.351562 C 187.292969 158.191406 187.992188 159.117188 188.578125 160.128906 C 189.167969 161.136719 189.628906 162.199219 189.964844 163.320312 L 190.789062 161.902344 C 190.890625 161.726562 191.039062 161.609375 191.238281 161.558594 C 191.433594 161.503906 191.621094 161.53125 191.796875 161.632812 C 191.96875 161.734375 192.082031 161.886719 192.132812 162.082031 C 192.183594 162.28125 192.15625 162.464844 192.054688 162.640625 L 190.296875 165.648438 C 190.195312 165.820312 190.046875 165.933594 189.851562 165.984375 C 189.660156 166.035156 189.472656 166.011719 189.300781 165.910156 L 186.296875 164.152344 C 186.121094 164.050781 186.007812 163.902344 185.953125 163.707031 C 185.902344 163.511719 185.929688 163.324219 186.03125 163.152344 C 186.132812 162.976562 186.28125 162.863281 186.476562 162.8125 C 186.671875 162.761719 186.859375 162.785156 187.03125 162.890625 L 188.582031 163.792969 C 188.011719 161.839844 187.039062 160.113281 185.667969 158.609375 C 184.144531 156.945312 182.320312 155.742188 180.191406 155.007812 Z M 157.984375 169.09375 C 157.832031 169.226562 157.660156 169.285156 157.460938 169.273438 C 157.261719 169.261719 157.09375 169.183594 156.960938 169.035156 C 156.828125 168.886719 156.761719 168.714844 156.769531 168.515625 C 156.777344 168.316406 156.855469 168.148438 157 168.011719 L 159.574219 165.671875 C 159.722656 165.535156 159.898438 165.472656 160.101562 165.480469 C 160.300781 165.488281 160.46875 165.570312 160.605469 165.71875 L 162.945312 168.296875 C 163.082031 168.445312 163.144531 168.621094 163.136719 168.824219 C 163.125 169.027344 163.046875 169.195312 162.898438 169.332031 C 162.75 169.464844 162.574219 169.53125 162.371094 169.519531 C 162.167969 169.511719 162 169.429688 161.863281 169.28125 L 160.632812 167.921875 C 160.625 168.082031 160.625 168.246094 160.625 168.410156 C 160.617188 170.980469 161.304688 173.351562 162.683594 175.519531 C 164.066406 177.695312 165.929688 179.332031 168.261719 180.425781 C 168.445312 180.511719 168.574219 180.648438 168.644531 180.839844 C 168.714844 181.027344 168.707031 181.214844 168.621094 181.398438 C 168.535156 181.582031 168.394531 181.707031 168.203125 181.777344 C 168.011719 181.84375 167.824219 181.835938 167.644531 181.746094 C 166.375 181.152344 165.214844 180.394531 164.164062 179.472656 C 163.113281 178.550781 162.210938 177.496094 161.460938 176.316406 C 160.710938 175.136719 160.136719 173.871094 159.746094 172.527344 C 159.355469 171.183594 159.160156 169.8125 159.160156 168.410156 C 159.160156 168.28125 159.164062 168.152344 159.164062 168.015625 Z M 157.984375 169.09375 "/><g clip-rule="nonzero" clip-path="url(#4913d7c428)"><path style=" stroke:none;fill-rule:evenodd;fill:#a3abff;fill-opacity:1;" d="M 176.273438 173.878906 L 195.738281 173.878906 C 196.628906 173.878906 197.171875 174.609375 196.941406 175.5 L 194.792969 183.894531 C 194.566406 184.785156 193.652344 185.511719 192.765625 185.511719 L 171.683594 185.511719 L 174.242188 175.5 C 174.472656 174.609375 175.382812 173.878906 176.273438 173.878906 Z M 176.273438 173.878906 "/></g><g clip-rule="nonzero" clip-path="url(#35dd7ec553)"><path style=" stroke:none;fill-rule:nonzero;fill:#414042;fill-opacity:1;" d="M 435.816406 112.890625 L 402.6875 112.890625 C 401.90625 112.890625 401.269531 112.253906 401.269531 111.464844 L 401.269531 87.835938 C 401.269531 87.046875 401.90625 86.40625 402.6875 86.40625 L 435.816406 86.40625 C 436.597656 86.40625 437.230469 87.046875 437.230469 87.835938 L 437.230469 111.464844 C 437.230469 112.253906 436.597656 112.890625 435.816406 112.890625 Z M 435.816406 112.890625 "/></g><path style=" stroke:none;fill-rule:nonzero;fill:#e6e7e8;fill-opacity:1;" d="M 415.453125 112.890625 L 423.046875 112.890625 L 423.046875 118.011719 L 415.453125 118.011719 Z M 415.453125 112.890625 "/><path style=" stroke:none;fill-rule:nonzero;fill:#d1d3d4;fill-opacity:1;" d="M 415.453125 112.890625 L 423.046875 112.890625 L 423.046875 114.601562 L 415.453125 114.601562 Z M 415.453125 112.890625 "/><path style=" stroke:none;fill-rule:nonzero;fill:#478cf7;fill-opacity:1;" d="M 435.046875 111.246094 L 403.453125 111.246094 C 403.074219 111.246094 402.765625 110.933594 402.765625 110.550781 L 402.765625 88.40625 C 402.765625 88.019531 403.074219 87.710938 403.453125 87.710938 L 435.046875 87.710938 C 435.429688 87.710938 435.738281 88.019531 435.738281 88.40625 L 435.738281 110.550781 C 435.738281 110.933594 435.429688 111.246094 435.046875 111.246094 Z M 435.046875 111.246094 "/><path style=" stroke:none;fill-rule:nonzero;fill:#5e9cf7;fill-opacity:1;" d="M 403.796875 107.386719 C 403.609375 107.386719 403.453125 107.230469 403.453125 107.039062 L 403.453125 88.753906 C 403.453125 88.660156 403.488281 88.570312 403.554688 88.507812 C 403.621094 88.441406 403.707031 88.40625 403.796875 88.40625 L 427.03125 88.40625 C 427.21875 88.40625 427.375 88.5625 427.375 88.753906 C 427.375 88.945312 427.21875 89.101562 427.03125 89.101562 L 404.144531 89.101562 L 404.144531 107.039062 C 404.144531 107.230469 403.988281 107.386719 403.796875 107.386719 Z M 428.410156 89.101562 C 428.21875 89.101562 428.0625 88.945312 428.0625 88.753906 C 428.0625 88.5625 428.21875 88.40625 428.410156 88.40625 C 428.597656 88.40625 428.753906 88.5625 428.753906 88.753906 C 428.753906 88.945312 428.597656 89.101562 428.410156 89.101562 Z M 428.410156 89.101562 "/><path style=" stroke:none;fill-rule:nonzero;fill:#377de2;fill-opacity:1;" d="M 435.046875 87.710938 L 434.015625 87.710938 L 434.015625 108.8125 C 434.015625 109.195312 433.707031 109.507812 433.324219 109.507812 L 402.765625 109.507812 L 402.765625 110.550781 C 402.765625 110.933594 403.074219 111.246094 403.453125 111.246094 L 435.046875 111.246094 C 435.429688 111.246094 435.738281 110.933594 435.738281 110.550781 L 435.738281 88.40625 C 435.738281 88.019531 435.429688 87.710938 435.046875 87.710938 Z M 435.046875 87.710938 "/><path style=" stroke:none;fill-rule:nonzero;fill:#2266d3;fill-opacity:1;" d="M 435.046875 87.710938 L 434.875 87.710938 L 434.875 109.679688 C 434.875 110.066406 434.566406 110.375 434.1875 110.375 L 402.765625 110.375 L 402.765625 110.550781 C 402.765625 110.933594 403.074219 111.246094 403.453125 111.246094 L 435.046875 111.246094 C 435.429688 111.246094 435.738281 110.933594 435.738281 110.550781 L 435.738281 88.40625 C 435.738281 88.019531 435.429688 87.710938 435.046875 87.710938 Z M 435.046875 87.710938 "/><path style=" stroke:none;fill-rule:nonzero;fill:#58595b;fill-opacity:1;" d="M 430.742188 119.6875 L 407.757812 119.6875 C 407.300781 119.6875 406.929688 119.3125 406.929688 118.851562 C 406.929688 118.386719 407.300781 118.011719 407.757812 118.011719 L 430.742188 118.011719 C 431.203125 118.011719 431.574219 118.386719 431.574219 118.851562 C 431.574219 119.3125 431.203125 119.6875 430.742188 119.6875 Z M 430.742188 119.6875 "/><g clip-rule="nonzero" clip-path="url(#a212aced28)"><path style=" stroke:none;fill-rule:nonzero;fill:#f1f2f2;fill-opacity:1;" d="M 437.835938 120.90625 L 425.964844 120.90625 C 425.519531 120.90625 425.160156 120.542969 425.160156 120.097656 L 425.160156 100.640625 C 425.160156 100.195312 425.519531 99.832031 425.964844 99.832031 L 437.835938 99.832031 C 438.28125 99.832031 438.640625 100.195312 438.640625 100.640625 L 438.640625 120.097656 C 438.640625 120.542969 438.28125 120.90625 437.835938 120.90625 Z M 437.835938 120.90625 "/></g><path style=" stroke:none;fill-rule:nonzero;fill:#414042;fill-opacity:1;" d="M 437.285156 119.210938 L 426.515625 119.210938 C 426.414062 119.210938 426.332031 119.125 426.332031 119.023438 L 426.332031 101.714844 C 426.332031 101.609375 426.414062 101.527344 426.515625 101.527344 L 437.285156 101.527344 C 437.386719 101.527344 437.46875 101.609375 437.46875 101.714844 L 437.46875 119.023438 C 437.46875 119.125 437.386719 119.210938 437.285156 119.210938 Z M 437.285156 119.210938 "/><path style=" stroke:none;fill-rule:nonzero;fill:#e63950;fill-opacity:1;" d="M 436.4375 109.765625 C 436.4375 110.066406 436.410156 110.363281 436.351562 110.660156 C 436.292969 110.953125 436.207031 111.238281 436.09375 111.515625 C 435.980469 111.792969 435.839844 112.058594 435.675781 112.308594 C 435.507812 112.558594 435.320312 112.789062 435.109375 113 C 434.898438 113.214844 434.671875 113.402344 434.421875 113.570312 C 434.175781 113.738281 433.914062 113.878906 433.636719 113.992188 C 433.363281 114.109375 433.078125 114.195312 432.785156 114.253906 C 432.492188 114.3125 432.199219 114.339844 431.902344 114.339844 C 431.601562 114.339844 431.308594 114.3125 431.015625 114.253906 C 430.722656 114.195312 430.441406 114.109375 430.164062 113.992188 C 429.890625 113.878906 429.628906 113.738281 429.378906 113.570312 C 429.132812 113.402344 428.902344 113.214844 428.691406 113 C 428.480469 112.789062 428.292969 112.558594 428.128906 112.308594 C 427.960938 112.058594 427.820312 111.792969 427.707031 111.515625 C 427.59375 111.238281 427.507812 110.953125 427.449219 110.660156 C 427.390625 110.363281 427.363281 110.066406 427.363281 109.765625 C 427.363281 109.464844 427.390625 109.167969 427.449219 108.871094 C 427.507812 108.578125 427.59375 108.292969 427.707031 108.015625 C 427.820312 107.738281 427.960938 107.472656 428.128906 107.222656 C 428.292969 106.972656 428.480469 106.742188 428.691406 106.53125 C 428.902344 106.316406 429.132812 106.128906 429.378906 105.960938 C 429.628906 105.792969 429.890625 105.652344 430.164062 105.539062 C 430.441406 105.421875 430.722656 105.335938 431.015625 105.277344 C 431.308594 105.21875 431.601562 105.1875 431.902344 105.1875 C 432.199219 105.1875 432.492188 105.21875 432.785156 105.277344 C 433.078125 105.335938 433.363281 105.421875 433.636719 105.539062 C 433.914062 105.652344 434.175781 105.792969 434.421875 105.960938 C 434.671875 106.128906 434.898438 106.316406 435.109375 106.53125 C 435.320312 106.742188 435.507812 106.972656 435.675781 107.222656 C 435.839844 107.472656 435.980469 107.738281 436.09375 108.015625 C 436.207031 108.292969 436.292969 108.578125 436.351562 108.871094 C 436.410156 109.167969 436.4375 109.464844 436.4375 109.765625 Z M 436.4375 109.765625 "/><path style=" stroke:none;fill-rule:nonzero;fill:#ffa91a;fill-opacity:1;" d="M 423.046875 104.132812 C 423.046875 104.640625 422.953125 105.128906 422.757812 105.597656 C 422.566406 106.066406 422.292969 106.480469 421.9375 106.839844 C 421.582031 107.199219 421.167969 107.476562 420.703125 107.667969 C 420.238281 107.863281 419.753906 107.960938 419.25 107.960938 C 418.746094 107.960938 418.261719 107.863281 417.796875 107.667969 C 417.332031 107.476562 416.921875 107.199219 416.566406 106.839844 C 416.210938 106.480469 415.9375 106.066406 415.742188 105.597656 C 415.550781 105.128906 415.453125 104.640625 415.453125 104.132812 C 415.453125 103.625 415.550781 103.136719 415.742188 102.667969 C 415.9375 102.199219 416.210938 101.785156 416.566406 101.425781 C 416.921875 101.066406 417.332031 100.789062 417.796875 100.59375 C 418.261719 100.398438 418.746094 100.304688 419.25 100.304688 C 419.753906 100.304688 420.238281 100.398438 420.703125 100.59375 C 421.167969 100.789062 421.578125 101.066406 421.9375 101.425781 C 422.292969 101.785156 422.566406 102.199219 422.757812 102.667969 C 422.953125 103.136719 423.046875 103.625 423.046875 104.132812 Z M 423.046875 104.132812 "/><path style=" stroke:none;fill-rule:nonzero;fill:#ffffff;fill-opacity:1;" d="M 418.839844 106.148438 C 418.671875 106.148438 418.503906 106.082031 418.371094 105.953125 L 417.070312 104.640625 C 416.8125 104.378906 416.8125 103.957031 417.070312 103.699219 C 417.328125 103.4375 417.746094 103.4375 418.007812 103.699219 L 418.839844 104.539062 L 420.496094 102.871094 C 420.753906 102.609375 421.171875 102.609375 421.429688 102.871094 C 421.691406 103.128906 421.691406 103.550781 421.429688 103.8125 L 419.308594 105.953125 C 419.179688 106.085938 419.007812 106.148438 418.839844 106.148438 Z M 418.839844 106.148438 "/><path style=" stroke:none;fill-rule:nonzero;fill:#ffa91a;fill-opacity:1;" d="M 411.183594 97.546875 L 406.9375 97.546875 C 406.683594 97.546875 406.476562 97.339844 406.476562 97.082031 L 406.476562 92.804688 C 406.476562 92.546875 406.683594 92.339844 406.9375 92.339844 L 411.183594 92.339844 C 411.4375 92.339844 411.644531 92.546875 411.644531 92.804688 L 411.644531 97.082031 C 411.644531 97.339844 411.4375 97.546875 411.183594 97.546875 Z M 411.183594 97.546875 "/><path style=" stroke:none;fill-rule:nonzero;fill:#f1f2f2;fill-opacity:1;" d="M 409.0625 96.761719 C 408.910156 96.761719 408.785156 96.640625 408.785156 96.484375 L 408.785156 93.402344 C 408.785156 93.246094 408.910156 93.125 409.0625 93.125 C 409.210938 93.125 409.335938 93.246094 409.335938 93.402344 L 409.335938 96.484375 C 409.335938 96.640625 409.210938 96.761719 409.0625 96.761719 Z M 409.0625 96.761719 "/><path style=" stroke:none;fill-rule:nonzero;fill:#f1f2f2;fill-opacity:1;" d="M 407.257812 94.941406 C 407.257812 94.789062 407.378906 94.664062 407.53125 94.664062 L 410.589844 94.664062 C 410.742188 94.664062 410.867188 94.789062 410.867188 94.941406 C 410.867188 95.097656 410.742188 95.222656 410.589844 95.222656 L 407.53125 95.222656 C 407.378906 95.222656 407.257812 95.097656 407.257812 94.941406 Z M 407.257812 94.941406 "/><path style=" stroke:none;fill-rule:nonzero;fill:#f1f2f2;fill-opacity:1;" d="M 407.785156 96.230469 C 407.675781 96.121094 407.675781 95.945312 407.785156 95.835938 L 409.949219 93.65625 C 410.054688 93.546875 410.230469 93.546875 410.335938 93.65625 C 410.445312 93.765625 410.445312 93.941406 410.335938 94.046875 L 408.175781 96.230469 C 408.066406 96.339844 407.890625 96.339844 407.785156 96.230469 Z M 407.785156 96.230469 "/><path style=" stroke:none;fill-rule:nonzero;fill:#f1f2f2;fill-opacity:1;" d="M 407.785156 93.65625 C 407.890625 93.546875 408.066406 93.546875 408.175781 93.65625 L 410.335938 95.835938 C 410.445312 95.945312 410.445312 96.121094 410.335938 96.230469 C 410.230469 96.339844 410.054688 96.339844 409.949219 96.230469 L 407.785156 94.050781 C 407.675781 93.941406 407.675781 93.765625 407.785156 93.65625 Z M 407.785156 93.65625 "/><path style=" stroke:none;fill-rule:nonzero;fill:#ffa91a;fill-opacity:1;" d="M 417.984375 97.546875 L 413.742188 97.546875 C 413.488281 97.546875 413.28125 97.339844 413.28125 97.082031 L 413.28125 92.804688 C 413.28125 92.546875 413.488281 92.339844 413.742188 92.339844 L 417.984375 92.339844 C 418.242188 92.339844 418.445312 92.546875 418.445312 92.804688 L 418.445312 97.082031 C 418.445312 97.339844 418.242188 97.546875 417.984375 97.546875 Z M 417.984375 97.546875 "/><path style=" stroke:none;fill-rule:nonzero;fill:#f1f2f2;fill-opacity:1;" d="M 415.863281 96.761719 C 415.710938 96.761719 415.589844 96.640625 415.589844 96.484375 L 415.589844 93.402344 C 415.589844 93.246094 415.710938 93.125 415.863281 93.125 C 416.015625 93.125 416.140625 93.246094 416.140625 93.402344 L 416.140625 96.484375 C 416.140625 96.640625 416.015625 96.761719 415.863281 96.761719 Z M 415.863281 96.761719 "/><path style=" stroke:none;fill-rule:nonzero;fill:#f1f2f2;fill-opacity:1;" d="M 414.058594 94.941406 C 414.058594 94.789062 414.183594 94.664062 414.332031 94.664062 L 417.394531 94.664062 C 417.546875 94.664062 417.667969 94.789062 417.667969 94.941406 C 417.667969 95.097656 417.546875 95.222656 417.394531 95.222656 L 414.332031 95.222656 C 414.183594 95.222656 414.058594 95.097656 414.058594 94.941406 Z M 414.058594 94.941406 "/><path style=" stroke:none;fill-rule:nonzero;fill:#f1f2f2;fill-opacity:1;" d="M 414.585938 96.230469 C 414.480469 96.121094 414.480469 95.945312 414.585938 95.835938 L 416.75 93.65625 C 416.859375 93.546875 417.03125 93.546875 417.140625 93.65625 C 417.246094 93.765625 417.246094 93.941406 417.140625 94.046875 L 414.976562 96.230469 C 414.867188 96.339844 414.695312 96.339844 414.585938 96.230469 Z M 414.585938 96.230469 "/><path style=" stroke:none;fill-rule:nonzero;fill:#f1f2f2;fill-opacity:1;" d="M 414.585938 93.65625 C 414.695312 93.546875 414.867188 93.546875 414.976562 93.65625 L 417.140625 95.835938 C 417.246094 95.945312 417.246094 96.121094 417.140625 96.230469 C 417.03125 96.339844 416.859375 96.339844 416.75 96.230469 L 414.585938 94.050781 C 414.480469 93.941406 414.480469 93.765625 414.585938 93.65625 Z M 414.585938 93.65625 "/><path style=" stroke:none;fill-rule:nonzero;fill:#ffa91a;fill-opacity:1;" d="M 424.789062 97.546875 L 420.542969 97.546875 C 420.289062 97.546875 420.082031 97.339844 420.082031 97.082031 L 420.082031 92.804688 C 420.082031 92.546875 420.289062 92.339844 420.542969 92.339844 L 424.789062 92.339844 C 425.042969 92.339844 425.25 92.546875 425.25 92.804688 L 425.25 97.082031 C 425.25 97.339844 425.042969 97.546875 424.789062 97.546875 Z M 424.789062 97.546875 "/><path style=" stroke:none;fill-rule:nonzero;fill:#f1f2f2;fill-opacity:1;" d="M 422.667969 96.761719 C 422.515625 96.761719 422.390625 96.640625 422.390625 96.484375 L 422.390625 93.402344 C 422.390625 93.246094 422.515625 93.125 422.667969 93.125 C 422.820312 93.125 422.941406 93.246094 422.941406 93.402344 L 422.941406 96.484375 C 422.941406 96.640625 422.820312 96.761719 422.667969 96.761719 Z M 422.667969 96.761719 "/><path style=" stroke:none;fill-rule:nonzero;fill:#f1f2f2;fill-opacity:1;" d="M 420.863281 94.941406 C 420.863281 94.789062 420.984375 94.664062 421.136719 94.664062 L 424.195312 94.664062 C 424.347656 94.664062 424.472656 94.789062 424.472656 94.941406 C 424.472656 95.097656 424.347656 95.222656 424.195312 95.222656 L 421.136719 95.222656 C 420.984375 95.222656 420.863281 95.097656 420.863281 94.941406 Z M 420.863281 94.941406 "/><path style=" stroke:none;fill-rule:nonzero;fill:#f1f2f2;fill-opacity:1;" d="M 421.390625 96.230469 C 421.28125 96.121094 421.28125 95.945312 421.390625 95.835938 L 423.554688 93.65625 C 423.660156 93.546875 423.835938 93.546875 423.941406 93.65625 C 424.050781 93.765625 424.050781 93.941406 423.941406 94.046875 L 421.78125 96.230469 C 421.671875 96.339844 421.496094 96.339844 421.390625 96.230469 Z M 421.390625 96.230469 "/><path style=" stroke:none;fill-rule:nonzero;fill:#f1f2f2;fill-opacity:1;" d="M 421.390625 93.65625 C 421.496094 93.546875 421.671875 93.546875 421.78125 93.65625 L 423.941406 95.835938 C 424.050781 95.945312 424.050781 96.121094 423.941406 96.230469 C 423.835938 96.339844 423.660156 96.339844 423.554688 96.230469 L 421.390625 94.050781 C 421.28125 93.941406 421.28125 93.765625 421.390625 93.65625 Z M 421.390625 93.65625 "/><path style=" stroke:none;fill-rule:nonzero;fill:#ffa91a;fill-opacity:1;" d="M 431.589844 97.546875 L 427.347656 97.546875 C 427.09375 97.546875 426.886719 97.339844 426.886719 97.082031 L 426.886719 92.804688 C 426.886719 92.546875 427.09375 92.339844 427.347656 92.339844 L 431.589844 92.339844 C 431.847656 92.339844 432.050781 92.546875 432.050781 92.804688 L 432.050781 97.082031 C 432.050781 97.339844 431.847656 97.546875 431.589844 97.546875 Z M 431.589844 97.546875 "/><path style=" stroke:none;fill-rule:nonzero;fill:#f1f2f2;fill-opacity:1;" d="M 429.46875 96.761719 C 429.316406 96.761719 429.195312 96.640625 429.195312 96.484375 L 429.195312 93.402344 C 429.195312 93.246094 429.316406 93.125 429.46875 93.125 C 429.621094 93.125 429.746094 93.246094 429.746094 93.402344 L 429.746094 96.484375 C 429.746094 96.640625 429.621094 96.761719 429.46875 96.761719 Z M 429.46875 96.761719 "/><path style=" stroke:none;fill-rule:nonzero;fill:#f1f2f2;fill-opacity:1;" d="M 427.664062 94.941406 C 427.664062 94.789062 427.789062 94.664062 427.941406 94.664062 L 431 94.664062 C 431.152344 94.664062 431.273438 94.789062 431.273438 94.941406 C 431.273438 95.097656 431.152344 95.222656 431 95.222656 L 427.941406 95.222656 C 427.789062 95.222656 427.664062 95.097656 427.664062 94.941406 Z M 427.664062 94.941406 "/><path style=" stroke:none;fill-rule:nonzero;fill:#f1f2f2;fill-opacity:1;" d="M 428.191406 96.230469 C 428.085938 96.121094 428.085938 95.945312 428.191406 95.835938 L 430.355469 93.65625 C 430.464844 93.546875 430.636719 93.546875 430.746094 93.65625 C 430.851562 93.765625 430.851562 93.941406 430.746094 94.046875 L 428.582031 96.230469 C 428.476562 96.339844 428.300781 96.339844 428.191406 96.230469 Z M 428.191406 96.230469 "/><path style=" stroke:none;fill-rule:nonzero;fill:#f1f2f2;fill-opacity:1;" d="M 428.191406 93.65625 C 428.300781 93.546875 428.476562 93.546875 428.582031 93.65625 L 430.746094 95.835938 C 430.851562 95.945312 430.851562 96.121094 430.746094 96.230469 C 430.636719 96.339844 430.464844 96.339844 430.355469 96.230469 L 428.191406 94.050781 C 428.085938 93.941406 428.085938 93.765625 428.191406 93.65625 Z M 428.191406 93.65625 "/><path style=" stroke:none;fill-rule:nonzero;fill:#ffa91a;fill-opacity:1;" d="M 433.550781 112.464844 L 430.253906 112.464844 C 430.132812 112.464844 430.039062 112.367188 430.039062 112.246094 L 430.039062 109.460938 C 430.039062 109.339844 430.132812 109.242188 430.253906 109.242188 L 433.550781 109.242188 C 433.667969 109.242188 433.765625 109.339844 433.765625 109.460938 L 433.765625 112.246094 C 433.765625 112.367188 433.667969 112.464844 433.550781 112.464844 Z M 433.550781 112.464844 "/><path style=" stroke:none;fill-rule:nonzero;fill:#ef7816;fill-opacity:1;" d="M 432.410156 111.476562 L 432.140625 110.71875 C 432.257812 110.640625 432.335938 110.503906 432.335938 110.351562 C 432.335938 110.109375 432.140625 109.914062 431.902344 109.914062 C 431.660156 109.914062 431.464844 110.109375 431.464844 110.351562 C 431.464844 110.503906 431.542969 110.640625 431.660156 110.71875 L 431.390625 111.476562 C 431.351562 111.585938 431.433594 111.699219 431.546875 111.699219 L 432.253906 111.699219 C 432.367188 111.699219 432.449219 111.585938 432.410156 111.476562 Z M 432.410156 111.476562 "/><path style=" stroke:none;fill-rule:nonzero;fill:#ffffff;fill-opacity:1;" d="M 433.414062 109.242188 L 432.898438 109.242188 L 432.898438 108.285156 C 432.898438 107.71875 432.441406 107.257812 431.878906 107.257812 C 431.316406 107.257812 430.859375 107.71875 430.859375 108.285156 L 430.859375 109.242188 L 430.339844 109.242188 L 430.339844 108.285156 C 430.339844 107.429688 431.03125 106.734375 431.878906 106.734375 C 432.726562 106.734375 433.414062 107.429688 433.414062 108.285156 Z M 433.414062 109.242188 "/><g clip-rule="nonzero" clip-path="url(#91900bcdf0)"><path style=" stroke:none;fill-rule:evenodd;fill:#000000;fill-opacity:1;" d="M 131.1875 108.558594 C 131.136719 108.550781 131.085938 108.542969 131.03125 108.542969 L 129.125 108.542969 C 128.515625 108.542969 127.933594 108.785156 127.507812 109.214844 C 127.078125 109.644531 126.835938 110.226562 126.835938 110.832031 C 126.835938 113.253906 126.835938 117.699219 126.835938 117.699219 C 126.835938 118.121094 127.175781 118.460938 127.597656 118.460938 C 128.019531 118.460938 128.359375 118.121094 128.359375 117.699219 L 128.359375 110.832031 C 128.359375 110.628906 128.441406 110.4375 128.585938 110.292969 C 128.726562 110.148438 128.921875 110.070312 129.125 110.070312 L 130.460938 110.070312 C 130.089844 111.066406 129.886719 112.144531 129.886719 113.269531 C 129.886719 114.40625 130.09375 115.496094 130.460938 116.507812 L 130.460938 116.511719 C 131.242188 118.605469 133.238281 119.988281 135.46875 119.988281 L 135.863281 119.988281 C 135.871094 120.597656 135.957031 121.21875 136.121094 121.835938 C 136.898438 124.726562 139.234375 126.785156 141.984375 127.339844 C 142.398438 127.425781 142.800781 127.15625 142.882812 126.746094 C 142.96875 126.332031 142.699219 125.929688 142.289062 125.847656 C 140.089844 125.402344 138.214844 123.753906 137.597656 121.441406 C 136.820312 118.542969 138.269531 115.570312 140.890625 114.339844 L 140.671875 114.722656 C 140.460938 115.085938 140.585938 115.554688 140.949219 115.765625 C 141.3125 115.976562 141.78125 115.851562 141.992188 115.484375 L 143.136719 113.503906 C 143.347656 113.136719 143.222656 112.671875 142.855469 112.460938 L 140.875 111.316406 C 140.511719 111.105469 140.042969 111.230469 139.832031 111.59375 C 139.621094 111.960938 139.746094 112.425781 140.113281 112.636719 L 140.480469 112.851562 C 138.105469 113.867188 136.453125 116.007812 135.992188 118.460938 L 135.46875 118.460938 C 133.878906 118.460938 132.453125 117.476562 131.894531 115.984375 C 131.585938 115.136719 131.414062 114.222656 131.414062 113.269531 C 131.414062 109.046875 134.839844 105.621094 139.0625 105.621094 L 139.09375 105.621094 C 139.703125 105.621094 140.253906 105.261719 140.496094 104.703125 C 141.6875 102.035156 144.367188 100.175781 147.476562 100.175781 C 149.847656 100.175781 151.972656 101.257812 153.375 102.957031 C 153.753906 103.425781 154.378906 103.625 154.960938 103.464844 C 155.730469 103.257812 156.539062 103.144531 157.375 103.144531 C 162.414062 103.144531 166.507812 107.238281 166.507812 112.28125 C 166.507812 113.835938 166.117188 115.253906 165.425781 116.5 C 164.753906 117.699219 163.484375 118.4375 162.109375 118.4375 C 162.09375 118.4375 162.074219 118.441406 162.054688 118.441406 C 162.035156 117.875 161.949219 117.304688 161.796875 116.734375 C 161.023438 113.84375 158.683594 111.785156 155.9375 111.230469 C 155.523438 111.144531 155.121094 111.414062 155.039062 111.824219 C 154.953125 112.238281 155.21875 112.640625 155.632812 112.726562 C 157.832031 113.171875 159.703125 114.816406 160.324219 117.128906 C 161.101562 120.027344 159.652344 123 157.027344 124.230469 L 157.25 123.847656 C 157.460938 123.484375 157.335938 123.015625 156.972656 122.808594 C 156.605469 122.597656 156.140625 122.722656 155.929688 123.085938 L 154.785156 125.066406 C 154.574219 125.433594 154.699219 125.898438 155.0625 126.109375 L 157.046875 127.253906 C 157.410156 127.464844 157.878906 127.339844 158.089844 126.976562 C 158.296875 126.609375 158.171875 126.144531 157.808594 125.933594 L 157.441406 125.71875 C 159.867188 124.679688 161.539062 122.46875 161.957031 119.949219 C 162.007812 119.960938 162.058594 119.964844 162.113281 119.964844 C 164.039062 119.964844 165.8125 118.925781 166.757812 117.246094 C 167.570312 115.777344 168.035156 114.109375 168.035156 112.28125 C 168.035156 111.523438 167.953125 110.78125 167.804688 110.070312 L 168.796875 110.070312 C 169.21875 110.070312 169.558594 110.410156 169.558594 110.832031 L 169.558594 130.667969 L 166.507812 130.667969 C 166.085938 130.667969 165.746094 131.011719 165.746094 131.433594 C 165.746094 131.851562 166.085938 132.195312 166.507812 132.195312 L 169.558594 132.195312 L 169.558594 134.484375 C 169.558594 134.90625 169.21875 135.246094 168.796875 135.246094 C 168.796875 135.246094 129.125 135.246094 129.125 135.246094 C 128.703125 135.246094 128.359375 134.90625 128.359375 134.484375 L 128.359375 132.195312 L 163.457031 132.195312 C 163.878906 132.195312 164.21875 131.851562 164.21875 131.433594 C 164.21875 131.011719 163.878906 130.667969 163.457031 130.667969 L 128.359375 130.667969 L 128.359375 123.800781 C 128.359375 123.382812 128.019531 123.039062 127.597656 123.039062 C 127.175781 123.039062 126.835938 123.382812 126.835938 123.800781 L 126.835938 134.484375 C 126.835938 135.746094 127.859375 136.773438 129.125 136.773438 L 144.382812 136.773438 L 144.382812 141.351562 L 142.855469 141.351562 C 142.4375 141.351562 142.09375 141.691406 142.09375 142.113281 C 142.09375 142.535156 142.4375 142.875 142.855469 142.875 L 155.0625 142.875 C 155.484375 142.875 155.828125 142.535156 155.828125 142.113281 C 155.828125 141.691406 155.484375 141.351562 155.0625 141.351562 L 153.539062 141.351562 L 153.539062 136.773438 L 168.796875 136.773438 C 170.0625 136.773438 171.085938 135.746094 171.085938 134.484375 C 171.085938 129.777344 171.085938 115.535156 171.085938 110.832031 C 171.085938 109.570312 170.0625 108.542969 168.796875 108.542969 L 167.359375 108.542969 C 165.84375 104.5 161.941406 101.621094 157.375 101.621094 C 156.402344 101.621094 155.460938 101.75 154.5625 101.992188 L 154.554688 101.992188 C 152.867188 99.949219 150.324219 98.648438 147.476562 98.648438 C 143.746094 98.648438 140.53125 100.882812 139.101562 104.082031 L 139.097656 104.09375 C 139.085938 104.09375 139.074219 104.09375 139.0625 104.09375 C 135.71875 104.09375 132.792969 105.886719 131.1875 108.558594 Z M 150.472656 136.773438 L 152.011719 136.773438 L 152.011719 141.351562 C 152.011719 141.351562 145.910156 141.351562 145.910156 141.351562 C 145.910156 141.351562 145.910156 136.773438 145.910156 136.773438 Z M 130.648438 134.484375 L 131.414062 134.484375 C 131.835938 134.484375 132.175781 134.140625 132.175781 133.71875 C 132.175781 133.300781 131.835938 132.957031 131.414062 132.957031 L 130.648438 132.957031 C 130.230469 132.957031 129.886719 133.300781 129.886719 133.71875 C 129.886719 134.140625 130.230469 134.484375 130.648438 134.484375 Z M 144.382812 109.894531 L 144.382812 117.699219 C 144.382812 118.121094 144.726562 118.460938 145.144531 118.460938 C 145.566406 118.460938 145.910156 118.121094 145.910156 117.699219 L 145.910156 114.671875 L 152.011719 114.671875 L 152.011719 127.617188 C 152.011719 127.820312 151.933594 128.015625 151.789062 128.15625 C 151.644531 128.300781 151.453125 128.378906 151.25 128.378906 L 146.671875 128.378906 C 146.46875 128.378906 146.273438 128.300781 146.132812 128.15625 C 145.988281 128.015625 145.910156 127.820312 145.910156 127.617188 L 145.910156 120.75 C 145.910156 120.328125 145.566406 119.988281 145.144531 119.988281 C 144.726562 119.988281 144.382812 120.328125 144.382812 120.75 L 144.382812 127.617188 C 144.382812 128.222656 144.625 128.804688 145.054688 129.234375 C 145.480469 129.664062 146.0625 129.90625 146.671875 129.90625 C 148 129.90625 149.917969 129.90625 151.25 129.90625 C 151.855469 129.90625 152.4375 129.664062 152.867188 129.234375 C 153.296875 128.804688 153.539062 128.222656 153.539062 127.617188 C 153.539062 123.773438 153.539062 113.734375 153.539062 109.894531 C 153.539062 109.285156 153.296875 108.703125 152.867188 108.273438 C 152.4375 107.847656 151.855469 107.605469 151.25 107.605469 C 149.917969 107.605469 148 107.605469 146.671875 107.605469 C 146.0625 107.605469 145.480469 107.847656 145.054688 108.273438 C 144.625 108.703125 144.382812 109.285156 144.382812 109.894531 Z M 147.160156 127.097656 L 150.527344 127.097656 C 150.949219 127.097656 151.292969 126.757812 151.292969 126.335938 C 151.292969 125.914062 150.949219 125.574219 150.527344 125.574219 L 147.160156 125.574219 C 146.738281 125.574219 146.398438 125.914062 146.398438 126.335938 C 146.398438 126.757812 146.738281 127.097656 147.160156 127.097656 Z M 148.960938 119.394531 C 147.695312 119.394531 146.671875 120.421875 146.671875 121.683594 C 146.671875 122.949219 147.695312 123.972656 148.960938 123.972656 C 150.222656 123.972656 151.25 122.949219 151.25 121.683594 C 151.25 120.421875 150.222656 119.394531 148.960938 119.394531 Z M 148.960938 120.921875 C 149.382812 120.921875 149.722656 121.265625 149.722656 121.683594 C 149.722656 122.105469 149.382812 122.449219 148.960938 122.449219 C 148.539062 122.449219 148.199219 122.105469 148.199219 121.683594 C 148.199219 121.265625 148.539062 120.921875 148.960938 120.921875 Z M 126.835938 119.988281 L 126.835938 121.511719 C 126.835938 121.933594 127.175781 122.277344 127.597656 122.277344 C 128.019531 122.277344 128.359375 121.933594 128.359375 121.511719 L 128.359375 119.988281 C 128.359375 119.566406 128.019531 119.226562 127.597656 119.226562 C 127.175781 119.226562 126.835938 119.566406 126.835938 119.988281 Z M 145.910156 111.902344 L 145.910156 113.144531 L 152.011719 113.144531 L 152.011719 111.902344 Z M 152.011719 110.375 L 152.011719 109.894531 C 152.011719 109.691406 151.933594 109.496094 151.789062 109.355469 C 151.644531 109.210938 151.453125 109.128906 151.25 109.128906 L 146.671875 109.128906 C 146.46875 109.128906 146.273438 109.210938 146.132812 109.355469 C 145.988281 109.496094 145.910156 109.691406 145.910156 109.894531 L 145.910156 110.375 Z M 152.011719 110.375 "/></g><g clip-rule="nonzero" clip-path="url(#be8442b18a)"><path style=" stroke:none;fill-rule:nonzero;fill:#ffffff;fill-opacity:1;" d="M 261.363281 221.601562 C 311.140625 221.601562 357.351562 214.914062 395.882812 203.46875 L 413.972656 189.890625 C 424.296875 182.148438 437.203125 179.386719 449.5 181.789062 C 483.546875 163.203125 504.035156 139.460938 504.035156 113.585938 C 504.035156 53.910156 395.414062 5.566406 261.363281 5.566406 C 127.3125 5.566406 18.710938 53.910156 18.710938 113.585938 C 18.710938 173.257812 127.3125 221.601562 261.363281 221.601562 Z M 261.363281 221.601562 "/></g><path style=" stroke:none;fill-rule:nonzero;fill:#ffffff;fill-opacity:1;" d="M 504.035156 143.207031 C 504.035156 162.21875 492.949219 180.039062 473.625 195.546875 C 481.144531 203.714844 485.789062 214.308594 485.789062 225.796875 L 485.789062 235.222656 C 491.222656 236.480469 496.382812 238.457031 501.65625 240.140625 C 503.070312 235.449219 504.015625 230.667969 504.015625 225.796875 C 504.035156 203.871094 504.035156 181.023438 504.035156 143.207031 Z M 504.035156 143.207031 "/><path style=" stroke:none;fill-rule:nonzero;fill:#ffffff;fill-opacity:1;" d="M 261.363281 333.816406 C 263.921875 333.816406 266.390625 333.679688 268.902344 333.636719 C 279.203125 322.277344 294.871094 316.625 310.488281 319.5625 L 315.785156 320.574219 C 309.75 312.785156 306.25 303.203125 306.25 293.125 C 306.25 278.988281 312.890625 265.679688 324.203125 257.21875 L 340.09375 245.300781 C 315.382812 249.070312 288.96875 251.226562 261.363281 251.226562 C 127.3125 251.226562 18.6875 202.90625 18.6875 143.207031 C 18.6875 168.121094 18.6875 184.773438 18.6875 225.796875 C 18.710938 285.472656 127.3125 333.816406 261.363281 333.816406 Z M 261.363281 333.816406 "/><path style=" stroke:none;fill-rule:nonzero;fill:#ffffff;fill-opacity:1;" d="M 244.484375 445.648438 C 241.925781 417.636719 245.269531 389.765625 254.472656 363.28125 C 123.632812 361.644531 18.710938 314.085938 18.710938 255.421875 C 18.710938 280.332031 18.710938 296.984375 18.710938 338.011719 C 18.710938 395.152344 118.335938 441.765625 244.484375 445.648438 Z M 244.484375 445.648438 "/><path style=" stroke:none;fill-rule:nonzero;fill:#ffffff;fill-opacity:1;" d="M 249.019531 475.359375 C 120.757812 472.488281 18.710938 425.449219 18.710938 367.636719 C 18.710938 392.546875 18.710938 409.199219 18.710938 450.226562 C 18.710938 509.902344 127.335938 558.242188 261.386719 558.242188 C 271.550781 558.242188 281.492188 557.859375 291.324219 557.34375 C 271.394531 534.273438 256.671875 506.445312 249.019531 475.359375 Z M 249.019531 475.359375 "/><path style=" stroke:none;fill-rule:nonzero;fill:#ffffff;fill-opacity:1;" d="M 351.132812 293.125 L 440.90625 225.796875 L 440.90625 360.453125 Z M 351.132812 293.125 "/><path style=" stroke:none;fill-rule:nonzero;fill:#ffffff;fill-opacity:1;" d="M 591.742188 402.757812 C 577.941406 319.472656 499.1875 263.144531 415.902344 276.96875 C 401.179688 279.414062 387.355469 283.992188 374.542969 290.117188 L 397.1875 323.222656 C 405.132812 319.898438 413.457031 317.183594 422.320312 315.726562 C 484.21875 305.46875 542.707031 347.324219 552.984375 409.222656 C 563.242188 471.140625 521.40625 529.628906 459.488281 539.882812 C 397.566406 550.140625 339.082031 508.308594 328.804688 446.386719 C 324.335938 419.433594 330.21875 393.398438 342.851562 371.40625 L 302.140625 363.664062 C 289.664062 390.574219 284.859375 421.386719 290.089844 452.828125 C 303.890625 536.113281 382.621094 592.445312 465.929688 578.621094 C 549.234375 564.796875 605.542969 486.042969 591.742188 402.757812 Z M 591.742188 402.757812 "/></g></svg>